<svg version="1.1" id="Layer_1" xmlns="http://www.w3.org/2000/svg" xmlns:xlink="http://www.w3.org/1999/xlink" x="0px" y="0px"
	 width="100%" viewBox="0 0 283 210" enable-background="new 0 0 283 210" xml:space="preserve">
<path fill="#FCFCFC" opacity="0.000000" stroke="none" 
	d="
M202.000000,211.000000 
	C134.666672,211.000000 67.833351,211.000000 1.000018,211.000000 
	C1.000012,141.000015 1.000012,71.000031 1.000006,1.000037 
	C95.333305,1.000025 189.666611,1.000025 283.999939,1.000012 
	C283.999939,70.999962 283.999939,140.999924 283.999969,210.999939 
	C256.833344,211.000000 229.666672,211.000000 202.000000,211.000000 
M214.297760,152.392792 
	C213.193436,152.222824 211.994995,151.683380 210.998642,151.937210 
	C188.981430,157.546494 166.983994,163.233643 144.998978,168.968033 
	C144.284103,169.154495 143.739441,169.993484 142.466660,171.084320 
	C144.550110,171.084320 145.731705,171.321548 146.781128,171.049347 
	C168.326126,165.460617 189.861649,159.834854 211.374817,154.125076 
	C212.637558,153.789932 213.695633,152.683640 215.532730,151.544724 
	C222.646271,152.789505 228.668442,149.760284 234.970352,147.826553 
	C234.745468,146.998901 234.520599,146.171265 234.295731,145.343613 
	C227.827713,147.553970 221.359711,149.764343 214.297760,152.392792 
M107.220779,114.911118 
	C106.723427,114.902351 106.199883,114.993286 105.732491,114.870483 
	C82.837753,108.854935 59.950649,102.810219 37.043308,96.843178 
	C36.381695,96.670837 35.511333,97.299889 34.738304,97.555275 
	C39.914520,99.884132 45.092552,101.209747 50.270889,102.534157 
	C69.493118,107.450394 88.715446,112.366234 108.477669,117.766464 
	C114.261688,118.574165 119.651772,122.355293 125.848595,120.057724 
	C119.892914,118.446640 113.937233,116.835548 107.220779,114.911118 
M167.103592,174.643707 
	C158.437073,176.947937 149.787903,179.320389 141.097595,181.531128 
	C135.782898,182.883118 133.423782,181.603668 132.770905,176.075180 
	C132.112030,170.495697 132.042480,164.766647 132.467041,159.160095 
	C132.961288,152.632751 135.772415,149.857620 142.197906,148.243668 
	C170.741837,141.074036 199.294495,133.939209 227.845139,126.796318 
	C232.045303,125.745506 236.276108,124.804886 240.436172,123.615456 
	C241.372482,123.347740 242.665298,122.288574 242.713760,121.525185 
	C242.762527,120.756615 241.622894,119.563461 240.729248,119.149544 
	C238.016586,117.893082 235.184280,116.887756 232.374817,115.848801 
	C223.338745,112.507202 214.291992,109.194427 204.345291,105.538216 
	C211.394791,103.019424 212.595993,97.936142 212.734619,92.346062 
	C212.856506,87.430840 211.081558,81.456985 213.283127,77.885506 
	C215.546768,74.213333 221.822464,73.196175 225.930954,70.410294 
	C228.348938,68.770729 231.366974,66.116470 231.661880,63.627869 
	C232.345673,57.857174 231.707184,51.897461 231.271637,46.039139 
	C231.028275,42.765640 228.628693,41.606705 225.481110,41.023273 
	C201.467499,36.572147 177.494720,31.900497 153.479889,27.456150 
	C149.469452,26.713951 144.960876,25.529930 141.286804,26.608564 
	C116.116295,33.998165 91.098022,41.908352 66.068398,49.770809 
	C64.610901,50.228649 63.481934,51.732376 62.200081,52.749374 
	C63.639503,53.721836 64.956261,55.220055 66.536552,55.588745 
	C95.193115,62.274551 123.846497,68.984322 152.594086,75.260590 
	C157.980698,76.436615 160.492371,79.208069 161.014877,84.091011 
	C161.417694,87.855492 161.518875,91.762398 160.976196,95.492805 
	C160.101822,101.503387 157.501633,102.921326 151.635574,101.546577 
	C131.736740,96.883179 111.829048,92.257538 91.929153,87.598633 
	C82.601570,85.414894 73.284073,83.188110 63.671467,80.912033 
	C63.671467,77.357620 63.671467,74.259323 63.671467,70.413322 
	C52.855881,73.988495 42.607243,77.272034 32.455563,80.832031 
	C30.712955,81.443138 29.383444,83.232208 27.863104,84.477119 
	C29.447992,85.356537 30.933767,86.621094 32.632473,87.058250 
	C63.673008,95.046448 94.700233,103.094521 125.836082,110.696564 
	C131.348953,112.042580 133.947754,114.951073 134.641464,119.962868 
	C135.299011,124.713310 135.885239,129.565475 135.639053,134.328262 
	C135.239838,142.051727 132.797424,143.421249 125.351440,141.470993 
	C93.971657,133.251877 62.581341,125.072426 31.161053,117.010300 
	C29.761780,116.651268 28.031977,117.580421 26.456137,117.909554 
	C27.646721,119.149040 28.625830,121.052795 30.065136,121.511017 
	C35.768963,123.326889 41.592964,124.790237 47.420925,126.181030 
	C50.476742,126.910271 52.448277,127.999947 52.541641,131.678406 
	C52.635597,135.380402 54.850456,137.841568 58.170452,139.863037 
	C81.881111,154.299927 105.535934,168.832413 129.027542,183.621933 
	C133.844070,186.654251 138.342926,187.253845 143.635635,185.728821 
	C153.216675,182.968140 162.884232,180.508530 172.508850,177.898117 
	C195.278671,171.722458 218.037933,165.507660 240.821106,159.381699 
	C243.378052,158.694153 245.241638,157.977951 243.395630,154.277664 
	C218.198471,160.986832 193.039993,167.685699 167.103592,174.643707 
M193.277847,147.071930 
	C176.201950,150.110397 159.778839,155.507492 143.302216,160.801178 
	C148.244888,160.657425 152.916473,159.443726 157.591415,158.243149 
	C169.311966,155.233139 181.039185,152.248505 192.737869,149.155807 
	C193.236542,149.023987 193.476593,147.913864 193.277847,147.071930 
M89.776634,122.100700 
	C99.727974,124.969719 109.679321,127.838745 119.630661,130.707764 
	C119.925949,130.267868 120.221237,129.827957 120.516525,129.388062 
	C119.506393,128.661713 118.594177,127.563797 117.470665,127.267715 
	C108.387390,124.874023 99.266861,122.620766 90.133163,120.426819 
	C89.976547,120.389206 89.514374,121.623642 89.776634,122.100700 
M56.903465,111.738152 
	C49.653561,109.897377 42.403660,108.056610 35.153759,106.215843 
	C34.985600,106.956879 34.817444,107.697922 34.649284,108.438957 
	C44.988873,111.078293 55.322266,113.742950 65.687675,116.276657 
	C66.168678,116.394234 66.936104,115.340134 67.917191,114.553436 
	C64.098747,113.549011 60.905827,112.709129 56.903465,111.738152 
M77.465164,66.276100 
	C75.539078,66.050209 73.612991,65.824310 71.686897,65.598412 
	C73.697449,66.185165 75.928825,65.811699 77.748901,66.510117 
	C86.309044,69.794922 94.701035,73.589470 104.182663,73.190277 
	C104.234497,73.188095 104.293060,73.345779 104.348480,73.428810 
	C104.302040,73.378723 104.255592,73.328636 104.209145,73.278549 
	C99.915855,71.016525 95.274040,69.720116 90.578346,68.663094 
	C86.448135,67.733376 82.257645,67.071518 77.465164,66.276100 
M125.838997,88.536171 
	C133.046143,90.284035 140.253281,92.031906 147.460419,93.779770 
	C140.978378,88.546608 119.655022,84.153740 117.180496,86.543289 
	C119.870964,87.153419 122.455620,87.739555 125.838997,88.536171 
M209.671997,142.164856 
	C207.220154,142.930557 204.768326,143.696243 202.316483,144.461945 
	C202.554855,145.209381 202.793228,145.956833 203.031586,146.704269 
	C211.622711,144.221558 220.213837,141.738846 228.804962,139.256149 
	C228.714752,138.960312 228.624542,138.664474 228.534332,138.368637 
	C222.513153,139.597168 216.491974,140.825699 209.671997,142.164856 
M75.464668,76.560280 
	C76.406792,76.560616 77.414078,76.341476 78.279968,76.598572 
	C82.440529,77.833878 86.531441,79.312584 90.714424,80.459175 
	C92.369972,80.912964 94.200073,80.729942 95.950699,80.836876 
	C95.979004,80.258713 96.007301,79.680542 96.035606,79.102379 
	C88.773506,77.502701 81.511406,75.903023 74.240005,74.301292 
	C74.508469,75.000847 74.741928,75.609184 75.464668,76.560280 
z"/>
<path fill="#080B0B" opacity="1.000000" stroke="none" 
	d="
M167.492554,174.514130 
	C193.039993,167.685699 218.198471,160.986832 243.395630,154.277664 
	C245.241638,157.977951 243.378052,158.694153 240.821106,159.381699 
	C218.037933,165.507660 195.278671,171.722458 172.508850,177.898117 
	C162.884232,180.508530 153.216675,182.968140 143.635635,185.728821 
	C138.342926,187.253845 133.844070,186.654251 129.027542,183.621933 
	C105.535934,168.832413 81.881111,154.299927 58.170452,139.863037 
	C54.850456,137.841568 52.635597,135.380402 52.541641,131.678406 
	C52.448277,127.999947 50.476742,126.910271 47.420925,126.181030 
	C41.592964,124.790237 35.768963,123.326889 30.065136,121.511017 
	C28.625830,121.052795 27.646721,119.149040 26.456135,117.909554 
	C28.031977,117.580421 29.761780,116.651268 31.161053,117.010300 
	C62.581341,125.072426 93.971657,133.251877 125.351440,141.470993 
	C132.797424,143.421249 135.239838,142.051727 135.639053,134.328262 
	C135.885239,129.565475 135.299011,124.713310 134.641464,119.962868 
	C133.947754,114.951073 131.348953,112.042580 125.836082,110.696564 
	C94.700233,103.094521 63.673008,95.046448 32.632473,87.058250 
	C30.933767,86.621094 29.447992,85.356537 27.863104,84.477119 
	C29.383444,83.232208 30.712955,81.443138 32.455563,80.832031 
	C42.607243,77.272034 52.855881,73.988495 63.671467,70.413322 
	C63.671467,74.259323 63.671467,77.357620 63.671467,80.912033 
	C73.284073,83.188110 82.601570,85.414894 91.929153,87.598633 
	C111.829048,92.257538 131.736740,96.883179 151.635574,101.546577 
	C157.501633,102.921326 160.101822,101.503387 160.976196,95.492805 
	C161.518875,91.762398 161.417694,87.855492 161.014877,84.091011 
	C160.492371,79.208069 157.980698,76.436615 152.594086,75.260590 
	C123.846497,68.984322 95.193115,62.274551 66.536552,55.588745 
	C64.956261,55.220055 63.639503,53.721836 62.200081,52.749374 
	C63.481934,51.732376 64.610901,50.228649 66.068398,49.770809 
	C91.098022,41.908352 116.116295,33.998165 141.286804,26.608564 
	C144.960876,25.529930 149.469452,26.713951 153.479889,27.456150 
	C177.494720,31.900497 201.467499,36.572147 225.481110,41.023273 
	C228.628693,41.606705 231.028275,42.765640 231.271637,46.039139 
	C231.707184,51.897461 232.345673,57.857174 231.661880,63.627869 
	C231.366974,66.116470 228.348938,68.770729 225.930954,70.410294 
	C221.822464,73.196175 215.546768,74.213333 213.283127,77.885506 
	C211.081558,81.456985 212.856506,87.430840 212.734619,92.346062 
	C212.595993,97.936142 211.394791,103.019424 204.345291,105.538216 
	C214.291992,109.194427 223.338745,112.507202 232.374817,115.848801 
	C235.184280,116.887756 238.016586,117.893082 240.729248,119.149544 
	C241.622894,119.563461 242.762527,120.756615 242.713760,121.525185 
	C242.665298,122.288574 241.372482,123.347740 240.436172,123.615456 
	C236.276108,124.804886 232.045303,125.745506 227.845139,126.796318 
	C199.294495,133.939209 170.741837,141.074036 142.197906,148.243668 
	C135.772415,149.857620 132.961288,152.632751 132.467041,159.160095 
	C132.042480,164.766647 132.112030,170.495697 132.770905,176.075180 
	C133.423782,181.603668 135.782898,182.883118 141.097595,181.531128 
	C149.787903,179.320389 158.437073,176.947937 167.492554,174.514130 
z"/>
<path fill="#212424" opacity="1.000000" stroke="none" 
	d="
M107.937737,117.282219 
	C88.715446,112.366234 69.493118,107.450394 50.270889,102.534157 
	C45.092552,101.209747 39.914520,99.884132 34.738304,97.555275 
	C35.511333,97.299889 36.381695,96.670837 37.043308,96.843178 
	C59.950649,102.810219 82.837753,108.854935 105.732491,114.870483 
	C106.199883,114.993286 106.723427,114.902351 107.584717,115.410461 
	C107.945007,116.367279 107.941368,116.824753 107.937737,117.282219 
z"/>
<path fill="#232626" opacity="1.000000" stroke="none" 
	d="
M214.848953,151.936218 
	C213.695633,152.683640 212.637558,153.789932 211.374817,154.125076 
	C189.861649,159.834854 168.326126,165.460617 146.781128,171.049347 
	C145.731705,171.321548 144.550110,171.084320 142.466660,171.084320 
	C143.739441,169.993484 144.284103,169.154495 144.998978,168.968033 
	C166.983994,163.233643 188.981430,157.546494 210.998642,151.937210 
	C211.994995,151.683380 213.193436,152.222824 214.610870,152.154114 
	C214.923996,151.915436 214.848953,151.936218 214.848953,151.936218 
z"/>
<path fill="#202323" opacity="1.000000" stroke="none" 
	d="
M193.557495,147.165710 
	C193.476593,147.913864 193.236542,149.023987 192.737869,149.155807 
	C181.039185,152.248505 169.311966,155.233139 157.591415,158.243149 
	C152.916473,159.443726 148.244888,160.657425 143.302216,160.801178 
	C159.778839,155.507492 176.201950,150.110397 193.557495,147.165710 
z"/>
<path fill="#424444" opacity="1.000000" stroke="none" 
	d="
M89.485710,122.182602 
	C89.514374,121.623642 89.976547,120.389206 90.133163,120.426819 
	C99.266861,122.620766 108.387390,124.874023 117.470665,127.267715 
	C118.594177,127.563797 119.506393,128.661713 120.516525,129.388062 
	C120.221237,129.827957 119.925949,130.267868 119.630661,130.707764 
	C109.679321,127.838745 99.727974,124.969719 89.485710,122.182602 
z"/>
<path fill="#2B2E2E" opacity="1.000000" stroke="none" 
	d="
M57.308186,111.803696 
	C60.905827,112.709129 64.098747,113.549011 67.917191,114.553436 
	C66.936104,115.340134 66.168678,116.394234 65.687675,116.276657 
	C55.322266,113.742950 44.988873,111.078293 34.649284,108.438957 
	C34.817444,107.697922 34.985600,106.956879 35.153759,106.215843 
	C42.403660,108.056610 49.653561,109.897377 57.308186,111.803696 
z"/>
<path fill="#303333" opacity="1.000000" stroke="none" 
	d="
M77.779465,66.283730 
	C82.257645,67.071518 86.448135,67.733376 90.578346,68.663094 
	C95.274040,69.720116 99.915855,71.016525 104.209145,73.278549 
	C104.255592,73.328636 104.302040,73.378723 104.348480,73.428810 
	C104.293060,73.345779 104.234497,73.188095 104.182663,73.190277 
	C94.701035,73.589470 86.309044,69.794922 77.748901,66.510117 
	C75.928825,65.811699 73.697449,66.185165 71.686897,65.598412 
	C73.612991,65.824310 75.539078,66.050209 77.779465,66.283730 
z"/>
<path fill="#292B2B" opacity="1.000000" stroke="none" 
	d="
M125.439636,88.430931 
	C122.455620,87.739555 119.870964,87.153419 117.180496,86.543289 
	C119.655022,84.153740 140.978378,88.546608 147.460419,93.779770 
	C140.253281,92.031906 133.046143,90.284035 125.439636,88.430931 
z"/>
<path fill="#3B3D3D" opacity="1.000000" stroke="none" 
	d="
M210.071396,142.109543 
	C216.491974,140.825699 222.513153,139.597168 228.534332,138.368637 
	C228.624542,138.664474 228.714752,138.960312 228.804962,139.256149 
	C220.213837,141.738846 211.622711,144.221558 203.031586,146.704269 
	C202.793228,145.956833 202.554855,145.209381 202.316483,144.461945 
	C204.768326,143.696243 207.220154,142.930557 210.071396,142.109543 
z"/>
<path fill="#2F3131" opacity="1.000000" stroke="none" 
	d="
M75.220032,76.388901 
	C74.741928,75.609184 74.508469,75.000847 74.240005,74.301292 
	C81.511406,75.903023 88.773506,77.502701 96.035606,79.102379 
	C96.007301,79.680542 95.979004,80.258713 95.950699,80.836876 
	C94.200073,80.729942 92.369972,80.912964 90.714424,80.459175 
	C86.531441,79.312584 82.440529,77.833878 78.279968,76.598572 
	C77.414078,76.341476 76.406792,76.560616 75.220032,76.388901 
z"/>
<path fill="#373939" opacity="1.000000" stroke="none" 
	d="
M214.907837,151.945068 
	C221.359711,149.764343 227.827713,147.553970 234.295731,145.343613 
	C234.520599,146.171265 234.745468,146.998901 234.970352,147.826553 
	C228.668442,149.760284 222.646271,152.789505 215.190842,151.740479 
	C214.848953,151.936218 214.923996,151.915436 214.907837,151.945068 
z"/>
<path fill="#2E3131" opacity="1.000000" stroke="none" 
	d="
M108.207703,117.524338 
	C107.941368,116.824753 107.945007,116.367279 107.965103,115.567139 
	C113.937233,116.835548 119.892914,118.446640 125.848595,120.057724 
	C119.651772,122.355293 114.261688,118.574165 108.207703,117.524338 
z"/>
</svg>