<svg xmlns="http://www.w3.org/2000/svg" xmlns:xlink="http://www.w3.org/1999/xlink" width="23px" height="25px" viewBox="0 0 23 25" version="1.1">
    <title>BOOK with a checkmark</title>
    <g id="Existing--Ropis" stroke="none" stroke-width="1" fill="none" fill-rule="evenodd">
        <g id="1440-print-book---ROPIS-icon_6-chiclets" transform="translate(-686.000000, -919.000000)">
            <g id="BOOK-with-a-checkmark" transform="translate(687.000000, 919.999700)">
                <path d="M16.2355804,19.1668811 L1.91040779,19.1668811 C1.55962126,19.1668811 1.2344864,19.2691748 0.951676789,19.4358042 L0.951676789,1.91655944 C0.951676789,1.28285315 1.46535139,0.766881119 2.09766494,0.766881119 L16.2355804,0.766881119 L16.2355804,19.1668811 Z M0.764419631,21.0834406 L0.951676789,21.0834406 L0.951676789,20.4568112 C1.15624882,20.1428531 1.50895922,19.9337622 1.91040779,19.9337622 L15.4814214,19.9337622 C15.2383719,20.2547972 15.0889509,20.6504615 15.0889509,21.0834406 C15.0889509,21.5164196 15.2383719,21.9120839 15.4814214,22.2337622 L1.91040779,22.2337622 C1.27809423,22.2337622 0.764419631,21.7177902 0.764419631,21.0834406 L0.764419631,21.0834406 Z M0.187257158,1.91655944 L0.187257158,20.2702378 C0.07054208,20.5179301 0,20.792 0,21.0834406 C0,22.1404755 0.856765627,23 1.91040779,23 L16.8127428,23 L16.8127428,22.9813427 C16.8749481,22.9871329 16.9358708,23 17,23 L17,22.2337622 C16.3676864,22.2337622 15.8533706,21.7177902 15.8533706,21.0834406 C15.8533706,20.4490909 16.3676864,19.9337622 17,19.9337622 L17,19.5503217 L17,19.1668811 L17,0 L2.09766494,0 C1.04466408,0 0.187257158,0.860167832 0.187257158,1.91655944 L0.187257158,1.91655944 Z" id="Fill-1" stroke="#0C0C0C" stroke-width="0.25" fill="#000000"/>
                <g id="check-mark" transform="translate(3.040192, 0.871611)">
                    <rect id="Rectangle" fill="#FFFFFF" x="10" y="0" width="8" height="8"/>
                    <polygon id="Fill-1" stroke="#FFFFFF" stroke-width="0.75" fill="#231F20" points="5.60624116 11.6037131 1.61253207 7.91248531 0 9.75242552 4.82816901 14.2148693 5.66254122 14.9860853 6.4689388 14.1858254 17.9598083 2.78185248 16.2907569 1"/>
                </g>
            </g>
        </g>
    </g>
</svg>