<svg version="1.1" id="Layer_1" xmlns="http://www.w3.org/2000/svg" xmlns:xlink="http://www.w3.org/1999/xlink" x="0px" y="0px"
	 width="100%" viewBox="0 0 249 215" enable-background="new 0 0 249 215" xml:space="preserve">
<path fill="#FEFEFE" opacity="1.000000" stroke="none" 
	d="
M178.000000,216.000000 
	C118.666672,216.000000 59.833340,216.000000 1.000008,216.000000 
	C1.000005,144.333344 1.000005,72.666679 1.000003,1.000018 
	C83.999985,1.000012 166.999969,1.000012 249.999969,1.000006 
	C249.999969,72.666649 249.999969,144.333298 249.999985,215.999969 
	C226.166672,216.000000 202.333328,216.000000 178.000000,216.000000 
M94.572945,189.410339 
	C95.299599,189.056183 96.026253,188.702026 97.454239,188.399734 
	C98.960228,187.752731 100.466209,187.105728 102.519005,186.502014 
	C102.982521,186.242950 103.446037,185.983871 104.632362,185.718384 
	C106.413086,184.982208 108.193802,184.246033 110.522026,183.543793 
	C110.986946,183.278244 111.451866,183.012695 112.638893,182.747391 
	C114.417877,182.011703 116.196861,181.276016 118.522820,180.575089 
	C118.990265,180.307755 119.457703,180.040421 120.646332,179.774445 
	C122.423271,179.039169 124.200211,178.303894 126.523384,177.602066 
	C126.993462,177.334442 127.463539,177.066818 128.673615,176.791687 
	C147.790848,169.661377 166.877838,162.448135 186.046097,155.457794 
	C190.975433,153.660156 193.103043,150.649979 193.043457,145.405502 
	C192.876953,130.750900 193.119461,116.091064 192.887848,101.438240 
	C192.832642,97.946068 193.994461,96.517761 197.175323,95.456085 
	C204.734726,92.932968 212.131821,89.928139 219.643448,87.255478 
	C223.289291,85.958275 224.770248,83.682571 224.731812,79.746140 
	C224.578964,64.091843 224.696228,48.435097 224.655685,32.779408 
	C224.638916,26.296528 222.368790,24.685736 216.200638,26.940466 
	C170.505936,43.643890 124.842323,60.432537 79.127480,77.080566 
	C74.663368,78.706268 72.997360,81.337906 73.125252,86.047523 
	C73.396408,96.033218 73.250267,106.031662 73.188683,116.024338 
	C73.161133,120.495384 74.362289,125.836746 72.342171,129.167725 
	C70.637054,131.979324 65.080643,132.446854 61.241753,133.984085 
	C60.794815,134.163071 60.430111,134.547409 59.432171,134.728729 
	C58.734318,135.067368 58.036465,135.406006 56.622559,135.791336 
	C55.091156,136.461273 53.559750,137.131226 51.429733,137.682205 
	C50.731556,138.034943 50.033375,138.387695 48.673061,138.882538 
	C47.489346,141.285599 45.325001,143.670517 45.280193,146.094635 
	C44.976997,162.498703 45.068840,178.911331 45.148243,195.320633 
	C45.179623,201.805679 49.355888,205.244644 55.628555,203.542999 
	C60.536884,202.211456 65.200775,199.978882 70.559731,198.272247 
	C71.248032,197.924683 71.936340,197.577133 73.343872,197.178284 
	C74.886612,196.513794 76.429344,195.849304 78.563988,195.318451 
	C79.260956,194.962250 79.957924,194.606033 81.368156,194.188721 
	C82.902512,193.534012 84.436859,192.879288 86.568687,192.361786 
	C87.274376,191.999573 87.980072,191.637360 89.391472,191.197433 
	C90.917915,190.556854 92.444359,189.916260 94.572945,189.410339 
z"/>
<path fill="#0D0F10" opacity="1.000000" stroke="none" 
	d="
M60.027283,134.836548 
	C60.430111,134.547409 60.794815,134.163071 61.241753,133.984085 
	C65.080643,132.446854 70.637054,131.979324 72.342171,129.167725 
	C74.362289,125.836746 73.161133,120.495384 73.188683,116.024338 
	C73.250267,106.031662 73.396408,96.033218 73.125252,86.047523 
	C72.997360,81.337906 74.663368,78.706268 79.127480,77.080566 
	C124.842323,60.432537 170.505936,43.643890 216.200638,26.940466 
	C222.368790,24.685736 224.638916,26.296528 224.655685,32.779408 
	C224.696228,48.435097 224.578964,64.091843 224.731812,79.746140 
	C224.770248,83.682571 223.289291,85.958275 219.643448,87.255478 
	C212.131821,89.928139 204.734726,92.932968 197.175323,95.456085 
	C193.994461,96.517761 192.832642,97.946068 192.887848,101.438240 
	C193.119461,116.091064 192.876953,130.750900 193.043457,145.405502 
	C193.103043,150.649979 190.975433,153.660156 186.046097,155.457794 
	C166.877838,162.448135 147.790848,169.661377 128.146484,176.600250 
	C127.071938,176.795395 126.524544,177.182007 125.977150,177.568619 
	C124.200211,178.303894 122.423271,179.039169 120.129318,179.581177 
	C119.066818,179.772049 118.521332,180.156189 117.975845,180.540329 
	C116.196861,181.276016 114.417877,182.011703 112.121780,182.557922 
	C111.061287,182.748932 110.517906,183.129395 109.974525,183.509857 
	C108.193802,184.246033 106.413086,184.982208 104.116714,185.536057 
	C103.058105,185.722061 102.515152,186.090393 101.972198,186.458725 
	C100.466209,187.105728 98.960228,187.752731 96.777451,188.277786 
	C95.390717,188.529114 94.680756,188.902390 93.970795,189.275665 
	C92.444359,189.916260 90.917915,190.556854 88.719940,191.161713 
	C87.356003,191.492172 86.663605,191.858368 85.971207,192.224564 
	C84.436859,192.879288 82.902512,193.534012 80.697716,194.150482 
	C79.342209,194.469772 78.657143,194.827286 77.972084,195.184814 
	C76.429344,195.849304 74.886612,196.513794 72.675446,197.139786 
	C71.329109,197.449738 70.651199,197.798203 69.973282,198.146652 
	C65.200775,199.978882 60.536884,202.211456 55.628555,203.542999 
	C49.355888,205.244644 45.179623,201.805679 45.148243,195.320633 
	C45.068840,178.911331 44.976997,162.498703 45.280193,146.094635 
	C45.325001,143.670517 47.489346,141.285599 49.319016,138.881500 
	C50.652760,138.520706 51.340553,138.160934 52.028347,137.801163 
	C53.559750,137.131226 55.091156,136.461273 57.292896,135.838287 
	C58.651253,135.535690 59.339268,135.186111 60.027283,134.836548 
M149.346832,84.149651 
	C149.346832,89.055588 149.346832,93.961525 149.346832,98.936157 
	C153.701187,99.204048 154.957794,97.262917 154.935181,93.842796 
	C154.875839,84.867783 154.939270,75.891968 154.881119,66.916939 
	C154.874222,65.851097 154.416199,64.788193 154.173630,63.750999 
	C149.173462,63.897808 146.550507,65.967918 145.995499,70.843971 
	C145.553162,74.730103 144.449539,78.540970 143.639465,82.385246 
	C141.643875,79.097786 141.059799,75.843292 139.995407,72.754303 
	C139.567688,71.512993 137.702866,69.581360 137.152252,69.781357 
	C135.189240,70.494370 132.006912,71.931290 131.959061,73.195412 
	C131.548065,84.050476 131.723068,94.927719 131.723068,105.924492 
	C137.081055,105.508499 137.297516,102.388115 137.088470,98.771858 
	C136.903091,95.565041 137.049591,92.339035 137.049591,89.121498 
	C137.516144,89.097557 137.982697,89.073616 138.449234,89.049675 
	C138.752060,89.579224 139.003036,90.147896 139.367508,90.630928 
	C140.418854,92.024284 141.515961,93.383110 142.595093,94.755493 
	C143.895386,93.265343 145.652023,91.967781 146.382431,90.237114 
	C147.331451,87.988457 147.464493,85.395432 148.418747,83.019539 
	C148.676239,83.225525 148.969757,83.335213 149.346832,84.149651 
M165.986572,156.474380 
	C172.068588,154.271408 178.200256,152.190918 184.191071,149.762924 
	C185.401520,149.272308 186.868118,147.475769 186.882370,146.265594 
	C187.064011,130.848206 187.002075,115.427948 187.002075,99.439316 
	C183.171570,100.788200 179.895004,101.889229 176.655746,103.090874 
	C145.683655,114.580399 114.727623,126.113373 83.728493,137.529404 
	C81.650673,138.294586 78.370033,139.301270 77.176506,138.326019 
	C72.994919,134.909180 69.524788,137.290146 65.810265,138.617065 
	C62.674492,139.737244 59.633251,141.203491 56.423367,142.015030 
	C51.960255,143.143417 50.427448,145.563995 50.529354,150.221817 
	C50.827938,163.869522 50.628551,177.527969 50.638397,191.182205 
	C50.643860,198.758591 51.226192,199.176346 58.332897,196.539169 
	C93.985550,183.309158 129.632217,170.063004 165.986572,156.474380 
M187.005997,83.866356 
	C187.005997,72.992477 187.005997,62.118603 187.005997,51.196739 
	C182.604477,51.431763 181.181244,53.252216 181.471207,57.045052 
	C181.790924,61.227131 181.544174,65.452515 181.544174,69.659035 
	C181.185654,69.711052 180.827148,69.763062 180.468628,69.815079 
	C178.358002,65.243134 176.247375,60.671188 174.015915,55.837486 
	C172.240829,56.465305 170.752304,56.991776 169.441788,57.455284 
	C169.441788,69.035713 169.441788,80.280006 169.441788,91.686081 
	C173.561325,91.577644 174.945709,89.684052 174.731125,85.956390 
	C174.498016,81.907104 174.678253,77.834015 174.678253,73.771309 
	C177.322296,76.944862 178.923737,80.319611 180.396896,83.749458 
	C182.086899,87.684143 184.255936,87.739731 187.005997,83.866356 
M124.105782,75.219925 
	C115.837265,75.895164 110.897316,79.333031 110.508751,85.622993 
	C110.059418,92.896706 110.224419,100.220871 110.412750,107.515633 
	C110.493645,110.648750 112.002449,112.827202 115.808029,112.267990 
	C123.091179,111.197777 127.564186,106.586517 127.783394,99.361053 
	C127.954399,93.724312 128.103714,88.056740 127.682350,82.446457 
	C127.504036,80.072319 125.838379,77.809891 124.105782,75.219925 
M203.084335,55.853687 
	C206.635574,56.847630 207.929367,55.159523 207.872040,51.839542 
	C207.820053,48.830372 208.185623,45.484211 203.875000,45.130966 
	C198.047821,44.653439 191.461761,49.611179 191.131805,55.326607 
	C190.710403,62.626110 190.794281,69.980522 191.144424,77.288078 
	C191.322266,80.999565 193.490448,82.857521 197.692062,81.591339 
	C205.404099,79.267265 207.483627,77.095856 208.142349,69.081497 
	C208.411316,65.809135 208.186829,62.496220 208.186829,59.201756 
	C207.746567,58.816795 207.306305,58.431831 206.866043,58.046871 
	C204.365799,59.721321 201.503616,61.075668 199.575256,63.255932 
	C198.958282,63.953495 200.813629,66.837753 201.537796,68.721519 
	C202.271484,68.893562 203.005173,69.065613 203.738861,69.237656 
	C201.875275,71.347351 200.011688,73.457039 198.148102,75.566727 
	C197.573105,75.268539 196.998108,74.970360 196.423111,74.672173 
	C196.423111,69.403252 196.636414,64.122894 196.354797,58.869072 
	C196.134354,54.756409 197.678986,52.627472 201.977097,52.280582 
	C202.259430,53.216084 202.540955,54.148880 203.084335,55.853687 
M90.189339,116.686630 
	C91.278023,119.839081 93.347633,120.410378 96.452461,119.535332 
	C105.322098,117.035530 107.705460,113.365273 106.452614,101.441589 
	C104.266380,103.893967 101.707863,105.457695 101.714912,107.009781 
	C101.733398,111.079803 99.396568,112.053711 95.042038,113.105637 
	C95.042038,107.274498 95.065529,101.733414 95.033913,96.192657 
	C95.012230,92.393768 96.781494,90.322487 100.816910,90.053070 
	C101.303947,91.769272 101.780098,93.447113 102.231377,95.037292 
	C106.842186,95.281731 107.677315,92.532021 106.860588,89.302345 
	C106.295708,87.068565 105.091759,83.810287 103.430710,83.262749 
	C98.495010,81.635719 90.433701,87.338966 90.188980,92.469765 
	C89.818657,100.233658 90.082191,108.027794 90.189339,116.686630 
M164.856644,72.515488 
	C164.856644,68.419106 164.856644,64.322723 164.856644,60.226337 
	C164.383438,59.900856 163.910233,59.575375 163.437027,59.249893 
	C162.020828,60.545547 159.419159,61.803268 159.376297,63.142864 
	C159.038162,73.709938 159.188446,84.292641 159.188446,94.946472 
	C163.176208,95.489418 164.936081,94.157837 164.878448,90.431519 
	C164.791245,84.792580 164.856277,79.151291 164.856644,72.515488 
z"/>
<path fill="#191A1A" opacity="1.000000" stroke="none" 
	d="
M59.729729,134.782639 
	C59.339268,135.186111 58.651253,135.535690 57.650925,135.814941 
	C58.036465,135.406006 58.734318,135.067368 59.729729,134.782639 
z"/>
<path fill="#191A1A" opacity="1.000000" stroke="none" 
	d="
M51.729042,137.741684 
	C51.340553,138.160934 50.652760,138.520706 49.650082,138.810455 
	C50.033375,138.387695 50.731556,138.034943 51.729042,137.741684 
z"/>
<path fill="#191A1A" opacity="1.000000" stroke="none" 
	d="
M126.250267,177.585342 
	C126.524544,177.182007 127.071938,176.795395 127.776474,176.603989 
	C127.463539,177.066818 126.993462,177.334442 126.250267,177.585342 
z"/>
<path fill="#191A1A" opacity="1.000000" stroke="none" 
	d="
M118.249329,180.557709 
	C118.521332,180.156189 119.066818,179.772049 119.768723,179.580490 
	C119.457703,180.040421 118.990265,180.307755 118.249329,180.557709 
z"/>
<path fill="#191A1A" opacity="1.000000" stroke="none" 
	d="
M110.248276,183.526825 
	C110.517906,183.129395 111.061287,182.748932 111.760727,182.557800 
	C111.451866,183.012695 110.986946,183.278244 110.248276,183.526825 
z"/>
<path fill="#191A1A" opacity="1.000000" stroke="none" 
	d="
M102.245605,186.480377 
	C102.515152,186.090393 103.058105,185.722061 103.755310,185.539261 
	C103.446037,185.983871 102.982521,186.242950 102.245605,186.480377 
z"/>
<path fill="#191A1A" opacity="1.000000" stroke="none" 
	d="
M94.271866,189.343002 
	C94.680756,188.902390 95.390717,188.529114 96.426788,188.251862 
	C96.026253,188.702026 95.299599,189.056183 94.271866,189.343002 
z"/>
<path fill="#191A1A" opacity="1.000000" stroke="none" 
	d="
M86.269943,192.293182 
	C86.663605,191.858368 87.356003,191.492172 88.367081,191.200562 
	C87.980072,191.637360 87.274376,191.999573 86.269943,192.293182 
z"/>
<path fill="#191A1A" opacity="1.000000" stroke="none" 
	d="
M78.268036,195.251633 
	C78.657143,194.827286 79.342209,194.469772 80.341080,194.181046 
	C79.957924,194.606033 79.260956,194.962250 78.268036,195.251633 
z"/>
<path fill="#191A1A" opacity="1.000000" stroke="none" 
	d="
M70.266510,198.209442 
	C70.651199,197.798203 71.329109,197.449738 72.315834,197.165436 
	C71.936340,197.577133 71.248032,197.924683 70.266510,198.209442 
z"/>
<path fill="#F7F7F7" opacity="1.000000" stroke="none" 
	d="
M165.633789,156.648453 
	C129.632217,170.063004 93.985550,183.309158 58.332897,196.539169 
	C51.226192,199.176346 50.643860,198.758591 50.638397,191.182205 
	C50.628551,177.527969 50.827938,163.869522 50.529354,150.221817 
	C50.427448,145.563995 51.960255,143.143417 56.423367,142.015030 
	C59.633251,141.203491 62.674492,139.737244 65.810265,138.617065 
	C69.524788,137.290146 72.994919,134.909180 77.176506,138.326019 
	C78.370033,139.301270 81.650673,138.294586 83.728493,137.529404 
	C114.727623,126.113373 145.683655,114.580399 176.655746,103.090874 
	C179.895004,101.889229 183.171570,100.788200 187.002075,99.439316 
	C187.002075,115.427948 187.064011,130.848206 186.882370,146.265594 
	C186.868118,147.475769 185.401520,149.272308 184.191071,149.762924 
	C178.200256,152.190918 172.068588,154.271408 165.633789,156.648453 
M135.087372,158.459915 
	C135.570465,157.791458 136.454346,157.135742 136.476044,156.452621 
	C136.763718,147.398834 137.112885,138.336563 136.883255,129.290726 
	C136.856247,128.226166 133.397186,126.252640 131.674820,126.400269 
	C124.359581,127.027298 120.288200,131.987289 120.223862,139.506607 
	C120.185478,143.991928 119.887222,148.510254 120.323715,152.953018 
	C120.657478,156.350128 121.960228,159.652039 122.831963,162.996292 
	C126.363571,161.984512 129.901306,160.993057 133.419006,159.935059 
	C133.856094,159.803604 134.186966,159.318985 135.087372,158.459915 
M147.160721,138.937088 
	C148.102631,140.061920 149.267151,141.068741 149.939178,142.336624 
	C151.258759,144.826294 152.087112,147.597504 153.573624,149.966797 
	C154.142746,150.873901 156.013809,151.463150 157.183929,151.319611 
	C157.970795,151.223068 159.149689,149.593964 159.162201,148.637543 
	C159.302826,137.880997 159.251175,127.121941 159.251175,116.329041 
	C155.023224,116.512695 153.641434,118.507278 153.831787,122.189049 
	C154.040924,126.234085 153.879456,130.298279 153.879456,134.354126 
	C151.226517,131.208847 149.844879,127.742813 148.013885,124.533127 
	C147.286133,123.257446 145.562790,122.549721 144.292709,121.583412 
	C143.379395,123.064903 141.903793,124.464836 141.674530,126.045540 
	C141.249451,128.976273 141.552612,132.012650 141.552612,135.005035 
	C141.552582,142.067474 141.552612,149.129913 141.552612,156.078583 
	C145.822342,156.679611 147.129227,155.044678 147.019913,151.653412 
	C146.891449,147.667908 146.998901,143.674805 147.160721,138.937088 
M78.655426,159.623825 
	C79.125015,164.395691 81.867844,165.139557 86.051613,164.198044 
	C87.278023,163.922073 89.999687,165.064560 90.012611,165.605270 
	C90.050880,167.206894 89.374039,169.050278 88.398163,170.371796 
	C87.756531,171.240692 86.113922,171.370422 84.926674,171.828400 
	C84.151176,170.282547 83.532349,169.049011 82.929688,167.847672 
	C78.295670,169.658157 77.333321,171.681198 78.992363,175.854797 
	C80.333084,179.227570 82.714882,179.456421 85.911736,178.378998 
	C93.215538,175.917465 96.473137,171.462997 96.034988,163.943695 
	C95.643219,157.220337 94.345093,156.104050 87.484245,156.590820 
	C84.122574,156.829330 82.682137,154.964355 84.376129,152.103149 
	C85.257408,150.614670 87.066032,149.675232 88.906296,148.102814 
	C89.767868,150.195633 90.240196,151.342972 90.679893,152.411026 
	C95.930649,152.418777 95.907135,149.416977 95.101639,145.686768 
	C94.203056,141.525513 91.490883,141.427567 88.271507,142.348984 
	C80.285057,144.634781 77.564278,149.233215 78.655426,159.623825 
M116.313477,161.243958 
	C116.323555,153.831375 116.560020,146.406967 116.173294,139.015137 
	C116.084465,137.317108 114.115639,134.680420 112.559830,134.293396 
	C108.146469,133.195541 100.481483,137.716568 100.107506,142.051361 
	C99.384239,150.434738 99.527405,158.912369 99.757042,167.338791 
	C99.794113,168.699081 101.975304,170.908661 103.431999,171.156128 
	C108.226997,171.970673 114.485970,167.151260 116.313477,161.243958 
z"/>
<path fill="#EEEFEF" opacity="1.000000" stroke="none" 
	d="
M147.948746,82.950623 
	C147.464493,85.395432 147.331451,87.988457 146.382431,90.237114 
	C145.652023,91.967781 143.895386,93.265343 142.595093,94.755493 
	C141.515961,93.383110 140.418854,92.024284 139.367508,90.630928 
	C139.003036,90.147896 138.752060,89.579224 138.449234,89.049675 
	C137.982697,89.073616 137.516144,89.097557 137.049591,89.121498 
	C137.049591,92.339035 136.903091,95.565041 137.088470,98.771858 
	C137.297516,102.388115 137.081055,105.508499 131.723068,105.924492 
	C131.723068,94.927719 131.548065,84.050476 131.959061,73.195412 
	C132.006912,71.931290 135.189240,70.494370 137.152252,69.781357 
	C137.702866,69.581360 139.567688,71.512993 139.995407,72.754303 
	C141.059799,75.843292 141.643875,79.097786 143.639465,82.385246 
	C144.449539,78.540970 145.553162,74.730103 145.995499,70.843971 
	C146.550507,65.967918 149.173462,63.897808 154.173630,63.750999 
	C154.416199,64.788193 154.874222,65.851097 154.881119,66.916939 
	C154.939270,75.891968 154.875839,84.867783 154.935181,93.842796 
	C154.957794,97.262917 153.701187,99.204048 149.346832,98.936157 
	C149.346832,93.961525 149.346832,89.055588 149.525223,83.390152 
	C149.597595,81.486572 149.491592,80.342491 149.385574,79.198410 
	C149.032104,79.207642 148.678619,79.216881 148.325150,79.226120 
	C148.199677,80.467621 148.074219,81.709122 147.948746,82.950623 
z"/>
<path fill="#F2F2F2" opacity="1.000000" stroke="none" 
	d="
M186.970093,84.296867 
	C184.255936,87.739731 182.086899,87.684143 180.396896,83.749458 
	C178.923737,80.319611 177.322296,76.944862 174.678253,73.771309 
	C174.678253,77.834015 174.498016,81.907104 174.731125,85.956390 
	C174.945709,89.684052 173.561325,91.577644 169.441788,91.686081 
	C169.441788,80.280006 169.441788,69.035713 169.441788,57.455284 
	C170.752304,56.991776 172.240829,56.465305 174.015915,55.837486 
	C176.247375,60.671188 178.358002,65.243134 180.468628,69.815079 
	C180.827148,69.763062 181.185654,69.711052 181.544174,69.659035 
	C181.544174,65.452515 181.790924,61.227131 181.471207,57.045052 
	C181.181244,53.252216 182.604477,51.431763 187.005997,51.196739 
	C187.005997,62.118603 187.005997,72.992477 186.970093,84.296867 
z"/>
<path fill="#E9E9E9" opacity="1.000000" stroke="none" 
	d="
M124.477264,75.358307 
	C125.838379,77.809891 127.504036,80.072319 127.682350,82.446457 
	C128.103714,88.056740 127.954399,93.724312 127.783394,99.361053 
	C127.564186,106.586517 123.091179,111.197777 115.808029,112.267990 
	C112.002449,112.827202 110.493645,110.648750 110.412750,107.515633 
	C110.224419,100.220871 110.059418,92.896706 110.508751,85.622993 
	C110.897316,79.333031 115.837265,75.895164 124.477264,75.358307 
M122.194382,85.732773 
	C121.459099,84.735161 120.723824,83.737556 119.988541,82.739944 
	C118.647438,83.983002 116.238876,85.153122 116.148109,86.481606 
	C115.732254,92.568253 115.965240,98.699234 115.965240,104.973648 
	C120.384514,104.705322 122.451546,102.942360 122.238670,98.684868 
	C122.039230,94.696083 122.196320,90.689484 122.194382,85.732773 
z"/>
<path fill="#F1F2F2" opacity="1.000000" stroke="none" 
	d="
M202.953400,55.467682 
	C202.540955,54.148880 202.259430,53.216084 201.977097,52.280582 
	C197.678986,52.627472 196.134354,54.756409 196.354797,58.869072 
	C196.636414,64.122894 196.423111,69.403252 196.423111,74.672173 
	C196.998108,74.970360 197.573105,75.268539 198.148102,75.566727 
	C200.011688,73.457039 201.875275,71.347351 203.738861,69.237656 
	C203.005173,69.065613 202.271484,68.893562 201.537796,68.721519 
	C200.813629,66.837753 198.958282,63.953495 199.575256,63.255932 
	C201.503616,61.075668 204.365799,59.721321 206.866043,58.046871 
	C207.306305,58.431831 207.746567,58.816795 208.186829,59.201756 
	C208.186829,62.496220 208.411316,65.809135 208.142349,69.081497 
	C207.483627,77.095856 205.404099,79.267265 197.692062,81.591339 
	C193.490448,82.857521 191.322266,80.999565 191.144424,77.288078 
	C190.794281,69.980522 190.710403,62.626110 191.131805,55.326607 
	C191.461761,49.611179 198.047821,44.653439 203.875000,45.130966 
	C208.185623,45.484211 207.820053,48.830372 207.872040,51.839542 
	C207.929367,55.159523 206.635574,56.847630 202.953400,55.467682 
z"/>
<path fill="#F3F3F3" opacity="1.000000" stroke="none" 
	d="
M90.132866,116.247849 
	C90.082191,108.027794 89.818657,100.233658 90.188980,92.469765 
	C90.433701,87.338966 98.495010,81.635719 103.430710,83.262749 
	C105.091759,83.810287 106.295708,87.068565 106.860588,89.302345 
	C107.677315,92.532021 106.842186,95.281731 102.231377,95.037292 
	C101.780098,93.447113 101.303947,91.769272 100.816910,90.053070 
	C96.781494,90.322487 95.012230,92.393768 95.033913,96.192657 
	C95.065529,101.733414 95.042038,107.274498 95.042038,113.105637 
	C99.396568,112.053711 101.733398,111.079803 101.714912,107.009781 
	C101.707863,105.457695 104.266380,103.893967 106.452614,101.441589 
	C107.705460,113.365273 105.322098,117.035530 96.452461,119.535332 
	C93.347633,120.410378 91.278023,119.839081 90.132866,116.247849 
z"/>
<path fill="#E2E2E2" opacity="1.000000" stroke="none" 
	d="
M164.856628,73.013245 
	C164.856277,79.151291 164.791245,84.792580 164.878448,90.431519 
	C164.936081,94.157837 163.176208,95.489418 159.188446,94.946472 
	C159.188446,84.292641 159.038162,73.709938 159.376297,63.142864 
	C159.419159,61.803268 162.020828,60.545547 163.437027,59.249893 
	C163.910233,59.575375 164.383438,59.900856 164.856644,60.226337 
	C164.856644,64.322723 164.856644,68.419106 164.856628,73.013245 
z"/>
<path fill="#7C7D7D" opacity="1.000000" stroke="none" 
	d="
M148.183746,82.985077 
	C148.074219,81.709122 148.199677,80.467621 148.325150,79.226120 
	C148.678619,79.216881 149.032104,79.207642 149.385574,79.198410 
	C149.491592,80.342491 149.597595,81.486572 149.501434,82.989624 
	C148.969757,83.335213 148.676239,83.225525 148.183746,82.985077 
z"/>
<path fill="#181818" opacity="1.000000" stroke="none" 
	d="
M134.827209,158.728973 
	C134.186966,159.318985 133.856094,159.803604 133.419006,159.935059 
	C129.901306,160.993057 126.363571,161.984512 122.831955,162.996292 
	C121.960228,159.652039 120.657478,156.350128 120.323715,152.953018 
	C119.887222,148.510254 120.185478,143.991928 120.223862,139.506607 
	C120.288200,131.987289 124.359581,127.027298 131.674820,126.400269 
	C133.397186,126.252640 136.856247,128.226166 136.883255,129.290726 
	C137.112885,138.336563 136.763718,147.398834 136.476044,156.452621 
	C136.454346,157.135742 135.570465,157.791458 134.827209,158.728973 
M132.095764,150.126114 
	C132.095764,144.693039 132.095764,139.259964 132.095764,133.826889 
	C131.621475,133.493271 131.147186,133.159668 130.672913,132.826050 
	C129.078476,134.257095 126.242142,135.581314 126.108238,137.138000 
	C125.576744,143.317200 125.889603,149.569031 125.889603,156.180099 
	C129.365067,155.348602 132.257645,154.988129 132.095764,150.126114 
z"/>
<path fill="#0B0B0B" opacity="1.000000" stroke="none" 
	d="
M147.082382,139.311035 
	C146.998901,143.674805 146.891449,147.667908 147.019913,151.653412 
	C147.129227,155.044678 145.822342,156.679611 141.552612,156.078583 
	C141.552612,149.129913 141.552582,142.067474 141.552612,135.005035 
	C141.552612,132.012650 141.249451,128.976273 141.674530,126.045540 
	C141.903793,124.464836 143.379395,123.064903 144.292709,121.583420 
	C145.562790,122.549721 147.286133,123.257446 148.013885,124.533127 
	C149.844879,127.742813 151.226517,131.208847 153.879456,134.354126 
	C153.879456,130.298279 154.040924,126.234085 153.831787,122.189049 
	C153.641434,118.507278 155.023224,116.512695 159.251175,116.329041 
	C159.251175,127.121941 159.302826,137.880997 159.162201,148.637543 
	C159.149689,149.593964 157.970795,151.223068 157.183929,151.319611 
	C156.013809,151.463150 154.142746,150.873901 153.573624,149.966797 
	C152.087112,147.597504 151.258759,144.826294 149.939178,142.336624 
	C149.267151,141.068741 148.102631,140.061920 147.082382,139.311035 
z"/>
<path fill="#101010" opacity="1.000000" stroke="none" 
	d="
M78.544983,159.228043 
	C77.564278,149.233215 80.285057,144.634781 88.271507,142.348984 
	C91.490883,141.427567 94.203056,141.525513 95.101639,145.686768 
	C95.907135,149.416977 95.930649,152.418777 90.679893,152.411026 
	C90.240196,151.342972 89.767868,150.195633 88.906296,148.102814 
	C87.066032,149.675232 85.257408,150.614670 84.376129,152.103149 
	C82.682137,154.964355 84.122574,156.829330 87.484245,156.590820 
	C94.345093,156.104050 95.643219,157.220337 96.034988,163.943695 
	C96.473137,171.462997 93.215538,175.917465 85.911736,178.378998 
	C82.714882,179.456421 80.333084,179.227570 78.992363,175.854797 
	C77.333321,171.681198 78.295670,169.658157 82.929688,167.847672 
	C83.532349,169.049011 84.151176,170.282547 84.926674,171.828400 
	C86.113922,171.370422 87.756531,171.240692 88.398163,170.371796 
	C89.374039,169.050278 90.050880,167.206894 90.012611,165.605270 
	C89.999687,165.064560 87.278023,163.922073 86.051613,164.198044 
	C81.867844,165.139557 79.125015,164.395691 78.544983,159.228043 
z"/>
<path fill="#0C0C0C" opacity="1.000000" stroke="none" 
	d="
M116.196823,161.648865 
	C114.485970,167.151260 108.226997,171.970673 103.431999,171.156128 
	C101.975304,170.908661 99.794113,168.699081 99.757042,167.338791 
	C99.527405,158.912369 99.384239,150.434738 100.107506,142.051361 
	C100.481483,137.716568 108.146469,133.195541 112.559830,134.293396 
	C114.115639,134.680420 116.084465,137.317108 116.173294,139.015137 
	C116.560020,146.406967 116.323555,153.831375 116.196823,161.648865 
M108.807213,141.338135 
	C107.535828,142.271500 105.212715,143.152512 105.163223,144.146698 
	C104.834648,150.747818 104.993050,157.373169 104.993050,164.006561 
	C109.967880,163.759308 111.601494,161.315277 111.453720,157.141846 
	C111.313507,153.181992 111.579384,149.203766 111.338348,145.253662 
	C111.254471,143.879074 110.189148,142.564377 108.807213,141.338135 
z"/>
<path fill="#0C0E0F" opacity="1.000000" stroke="none" 
	d="
M122.195450,86.211746 
	C122.196320,90.689484 122.039230,94.696083 122.238670,98.684868 
	C122.451546,102.942360 120.384514,104.705322 115.965240,104.973648 
	C115.965240,98.699234 115.732254,92.568253 116.148109,86.481606 
	C116.238876,85.153122 118.647438,83.983002 119.988541,82.739944 
	C120.723824,83.737556 121.459099,84.735161 122.195450,86.211746 
z"/>
<path fill="#F2F2F2" opacity="1.000000" stroke="none" 
	d="
M132.094849,150.581711 
	C132.257645,154.988129 129.365067,155.348602 125.889603,156.180099 
	C125.889603,149.569031 125.576744,143.317200 126.108238,137.138000 
	C126.242142,135.581314 129.078476,134.257095 130.672913,132.826050 
	C131.147186,133.159668 131.621475,133.493271 132.095764,133.826889 
	C132.095764,139.259964 132.095764,144.693039 132.094849,150.581711 
z"/>
<path fill="#E9E9E9" opacity="1.000000" stroke="none" 
	d="
M109.189636,141.280228 
	C110.189148,142.564377 111.254471,143.879074 111.338348,145.253662 
	C111.579384,149.203766 111.313507,153.181992 111.453720,157.141846 
	C111.601494,161.315277 109.967880,163.759308 104.993050,164.006561 
	C104.993050,157.373169 104.834648,150.747818 105.163223,144.146698 
	C105.212715,143.152512 107.535828,142.271500 109.189636,141.280228 
z"/>
</svg>