<svg version="1.1" id="Layer_1" xmlns="http://www.w3.org/2000/svg" xmlns:xlink="http://www.w3.org/1999/xlink" x="0px" y="0px"
	 width="100%" viewBox="0 0 222 171" enable-background="new 0 0 222 171" xml:space="preserve">
<path fill="#FBFBFB" opacity="0.000000" stroke="none" 
	d="
M142.000000,172.000000 
	C94.666672,172.000000 47.833340,172.000000 1.000006,172.000000 
	C1.000004,115.000008 1.000004,58.000011 1.000002,1.000014 
	C74.999992,1.000009 148.999985,1.000009 222.999969,1.000005 
	C222.999985,57.999985 222.999985,114.999969 223.000000,171.999969 
	C196.166672,172.000000 169.333328,172.000000 142.000000,172.000000 
M29.538319,82.760155 
	C27.425537,82.760155 25.312756,82.760155 22.969185,82.760155 
	C22.969185,95.947731 22.594294,108.575165 23.104124,121.166779 
	C23.431026,129.240479 29.627516,134.219574 37.849480,134.226440 
	C73.330780,134.256134 108.812119,134.239166 144.293442,134.231934 
	C145.077347,134.231781 145.861221,134.145401 146.709091,134.095474 
	C146.709091,119.660583 146.709091,105.550316 146.709091,90.922264 
	C143.809158,96.004166 141.722687,100.920563 138.531525,104.965416 
	C133.404388,111.464142 122.966858,110.279114 119.203499,102.984001 
	C118.256737,101.148758 118.551285,98.581993 118.633659,96.364716 
	C118.657181,95.731583 120.236755,94.501511 120.586731,94.663078 
	C121.488136,95.079193 122.825539,96.247093 122.713104,96.892365 
	C121.881088,101.667694 124.486816,103.779213 128.524292,104.559799 
	C132.847260,105.395576 135.389862,102.631599 137.229492,99.272087 
	C140.145111,93.947609 142.858978,88.512650 145.847443,82.760155 
	C107.130936,82.760155 68.832230,82.760155 29.538319,82.760155 
M22.787344,54.500168 
	C22.787344,61.599606 22.787344,68.699043 22.787344,75.852531 
	C59.801865,75.852531 96.190674,75.852531 132.228638,75.852531 
	C126.821190,71.850784 121.049721,68.229645 116.078781,63.725086 
	C110.695900,58.847252 111.626663,53.314289 117.683868,49.292957 
	C123.453644,45.462433 129.902496,46.339741 136.095566,52.450058 
	C139.971863,56.274540 143.237381,60.718063 146.759308,64.863052 
	C146.759308,51.359081 146.759308,37.953175 146.759308,24.516058 
	C145.971359,24.381922 145.498428,24.231091 145.025436,24.230909 
	C109.070374,24.217146 73.115211,24.168804 37.160332,24.248110 
	C29.103674,24.265879 23.334274,30.097301 22.870132,38.523022 
	C22.595863,43.501938 22.798922,48.507153 22.787344,54.500168 
M162.530212,134.251160 
	C168.690002,134.251160 174.849823,134.258957 181.009598,134.249359 
	C191.353012,134.233231 196.773193,128.889481 196.784470,118.688095 
	C196.794968,109.198677 196.786835,99.709251 196.786896,90.219826 
	C196.786911,87.808182 196.786896,85.396538 196.786896,83.023430 
	C182.814163,83.023430 169.589569,83.023430 155.240860,83.023430 
	C159.488815,90.204941 163.148819,96.820419 167.314484,103.100487 
	C168.228607,104.478630 170.941681,104.663490 172.826340,105.397881 
	C173.277145,103.764832 173.613586,102.088066 174.215714,100.512856 
	C174.679443,99.299690 175.477127,98.214180 176.126312,97.071899 
	C177.109512,98.006767 178.717773,98.803688 178.960190,99.902054 
	C179.725800,103.371010 179.903152,106.932770 176.203445,109.185837 
	C172.426071,111.486191 168.544830,111.160721 165.762650,108.035675 
	C162.163544,103.993027 159.224792,99.352165 156.117050,94.888565 
	C155.170898,93.529655 154.605637,91.905579 153.340454,89.335495 
	C153.340454,105.134315 153.340454,119.525658 153.340454,134.251175 
	C156.261047,134.251175 158.900223,134.251175 162.530212,134.251160 
M166.869476,48.113548 
	C172.970230,44.483124 177.027893,45.430550 180.617142,51.323467 
	C183.805161,56.557629 182.567322,62.604244 177.044281,67.277031 
	C173.509003,70.268059 169.691132,72.925072 165.800095,75.883774 
	C176.361725,75.883774 186.424286,75.883774 196.767532,75.883774 
	C196.767532,62.494568 196.951492,49.513870 196.685043,36.542427 
	C196.563354,30.617170 191.339417,24.817337 185.199387,24.498188 
	C174.623413,23.948473 163.998215,24.345997 153.261444,24.345997 
	C153.261444,38.696327 153.261444,52.576694 153.261444,66.075584 
	C157.533112,60.334213 161.906433,54.456196 166.869476,48.113548 
M142.022812,66.529099 
	C139.625473,63.369312 137.652649,59.714226 134.709320,57.191456 
	C131.864090,54.752766 128.170639,52.721989 124.552658,51.999130 
	C122.588890,51.606781 119.211548,53.820610 117.987244,55.797417 
	C117.196388,57.074368 118.493690,60.754787 119.985497,62.147026 
	C127.229988,68.908058 136.163651,72.512634 146.911942,75.478363 
	C145.005646,71.927650 143.718307,69.529785 142.022812,66.529099 
M177.929153,57.441242 
	C176.370911,55.034340 175.145676,51.080212 173.161285,50.653099 
	C171.153000,50.220840 167.570023,52.731426 166.120377,54.912445 
	C162.074020,61.000225 158.775024,67.584747 155.181000,73.973175 
	C155.632492,74.319252 156.083984,74.665329 156.535492,75.011406 
	C164.599823,70.690445 173.765564,67.833839 177.929153,57.441242 
z"/>
<path fill="#020202" opacity="1.000000" stroke="none" 
	d="
M30.035919,82.760155 
	C68.832230,82.760155 107.130936,82.760155 145.847443,82.760155 
	C142.858978,88.512650 140.145111,93.947609 137.229492,99.272087 
	C135.389862,102.631599 132.847260,105.395576 128.524292,104.559799 
	C124.486816,103.779213 121.881088,101.667694 122.713104,96.892365 
	C122.825539,96.247093 121.488136,95.079193 120.586731,94.663078 
	C120.236755,94.501511 118.657181,95.731583 118.633659,96.364716 
	C118.551285,98.581993 118.256737,101.148758 119.203499,102.984001 
	C122.966858,110.279114 133.404388,111.464142 138.531525,104.965416 
	C141.722687,100.920563 143.809158,96.004166 146.709091,90.922264 
	C146.709091,105.550316 146.709091,119.660583 146.709091,134.095474 
	C145.861221,134.145401 145.077347,134.231781 144.293442,134.231934 
	C108.812119,134.239166 73.330780,134.256134 37.849480,134.226440 
	C29.627516,134.219574 23.431026,129.240479 23.104124,121.166779 
	C22.594294,108.575165 22.969185,95.947731 22.969185,82.760155 
	C25.312756,82.760155 27.425537,82.760155 30.035919,82.760155 
z"/>
<path fill="#030303" opacity="1.000000" stroke="none" 
	d="
M22.787336,54.000351 
	C22.798922,48.507153 22.595863,43.501938 22.870132,38.523022 
	C23.334274,30.097301 29.103674,24.265879 37.160332,24.248110 
	C73.115211,24.168804 109.070374,24.217146 145.025436,24.230909 
	C145.498428,24.231091 145.971359,24.381922 146.759308,24.516058 
	C146.759308,37.953175 146.759308,51.359081 146.759308,64.863052 
	C143.237381,60.718063 139.971863,56.274540 136.095566,52.450058 
	C129.902496,46.339741 123.453644,45.462433 117.683868,49.292957 
	C111.626663,53.314289 110.695900,58.847252 116.078781,63.725086 
	C121.049721,68.229645 126.821190,71.850784 132.228638,75.852531 
	C96.190674,75.852531 59.801865,75.852531 22.787344,75.852531 
	C22.787344,68.699043 22.787344,61.599606 22.787336,54.000351 
z"/>
<path fill="#050505" opacity="1.000000" stroke="none" 
	d="
M162.034805,134.251160 
	C158.900223,134.251175 156.261047,134.251175 153.340454,134.251175 
	C153.340454,119.525658 153.340454,105.134315 153.340454,89.335495 
	C154.605637,91.905579 155.170898,93.529655 156.117050,94.888565 
	C159.224792,99.352165 162.163544,103.993027 165.762650,108.035675 
	C168.544830,111.160721 172.426071,111.486191 176.203445,109.185837 
	C179.903152,106.932770 179.725800,103.371010 178.960190,99.902054 
	C178.717773,98.803688 177.109512,98.006767 176.126312,97.071899 
	C175.477127,98.214180 174.679443,99.299690 174.215714,100.512856 
	C173.613586,102.088066 173.277145,103.764832 172.826324,105.397881 
	C170.941681,104.663490 168.228607,104.478630 167.314484,103.100487 
	C163.148819,96.820419 159.488815,90.204941 155.240860,83.023430 
	C169.589569,83.023430 182.814163,83.023430 196.786896,83.023430 
	C196.786896,85.396538 196.786911,87.808182 196.786896,90.219826 
	C196.786835,99.709251 196.794968,109.198677 196.784470,118.688095 
	C196.773193,128.889481 191.353012,134.233231 181.009598,134.249359 
	C174.849823,134.258957 168.690002,134.251160 162.034805,134.251160 
z"/>
<path fill="#070707" opacity="1.000000" stroke="none" 
	d="
M166.574615,48.345863 
	C161.906433,54.456196 157.533112,60.334213 153.261444,66.075584 
	C153.261444,52.576694 153.261444,38.696327 153.261444,24.345997 
	C163.998215,24.345997 174.623413,23.948473 185.199387,24.498188 
	C191.339417,24.817337 196.563354,30.617170 196.685043,36.542427 
	C196.951492,49.513870 196.767532,62.494568 196.767532,75.883774 
	C186.424286,75.883774 176.361725,75.883774 165.800095,75.883774 
	C169.691132,72.925072 173.509003,70.268059 177.044281,67.277031 
	C182.567322,62.604244 183.805161,56.557629 180.617142,51.323467 
	C177.027893,45.430550 172.970230,44.483124 166.574615,48.345863 
z"/>
<path fill="#0B0B0B" opacity="1.000000" stroke="none" 
	d="
M142.226883,66.830505 
	C143.718307,69.529785 145.005646,71.927650 146.911942,75.478363 
	C136.163651,72.512634 127.229988,68.908058 119.985497,62.147026 
	C118.493690,60.754787 117.196388,57.074368 117.987244,55.797417 
	C119.211548,53.820610 122.588890,51.606781 124.552658,51.999130 
	C128.170639,52.721989 131.864090,54.752766 134.709320,57.191456 
	C137.652649,59.714226 139.625473,63.369312 142.226883,66.830505 
z"/>
<path fill="#0B0B0B" opacity="1.000000" stroke="none" 
	d="
M177.878998,57.817299 
	C173.765564,67.833839 164.599823,70.690445 156.535492,75.011406 
	C156.083984,74.665329 155.632492,74.319252 155.181000,73.973175 
	C158.775024,67.584747 162.074020,61.000225 166.120377,54.912445 
	C167.570023,52.731426 171.153000,50.220840 173.161285,50.653099 
	C175.145676,51.080212 176.370911,55.034340 177.878998,57.817299 
z"/>
</svg>