<svg version="1.1" id="Layer_1" xmlns="http://www.w3.org/2000/svg" xmlns:xlink="http://www.w3.org/1999/xlink" x="0px" y="0px"
	 width="100%" viewBox="0 0 281 157" enable-background="new 0 0 281 157" xml:space="preserve">
<path fill="#FDFDFD" opacity="0.000000" stroke="none" 
	d="
M157.000000,158.000000 
	C104.666672,158.000000 52.833347,158.000000 1.000014,158.000000 
	C1.000009,105.666679 1.000009,53.333359 1.000005,1.000028 
	C94.666649,1.000019 188.333298,1.000019 281.999939,1.000009 
	C281.999969,53.333302 281.999969,105.666603 282.000000,157.999954 
	C240.500000,158.000000 199.000000,158.000000 157.000000,158.000000 
M186.512146,138.227646 
	C191.435623,138.227646 196.359116,138.227646 201.552475,138.227646 
	C201.552475,117.405487 201.633820,97.265862 201.482727,77.127975 
	C201.453079,73.174553 200.879105,69.142891 199.955017,65.291542 
	C192.521484,34.310631 161.647629,13.713068 130.025223,18.496256 
	C102.822701,22.610897 80.747650,44.047623 77.938347,71.373985 
	C76.260056,87.698975 77.382744,104.312988 77.269669,120.797241 
	C77.231064,126.425476 77.263542,132.054199 77.263542,137.829376 
	C85.755859,137.829376 93.779678,137.829376 101.717529,137.829376 
	C101.873283,137.117920 102.002235,136.803070 102.002563,136.488083 
	C102.022903,116.989777 101.945457,97.490662 102.122314,77.993851 
	C102.154945,74.396164 102.705795,70.631927 103.881775,67.244629 
	C109.913742,49.869972 127.770500,39.866486 146.560028,43.042984 
	C164.193634,46.024059 176.845642,61.356197 176.864563,79.812164 
	C176.882843,97.644249 176.868515,115.476364 176.868515,133.308472 
	C176.868515,134.900146 176.868515,136.491806 176.868515,138.227646 
	C180.202286,138.227646 182.859955,138.227646 186.512146,138.227646 
M64.423050,112.500320 
	C64.423050,97.370392 64.423050,82.240471 64.423050,66.875893 
	C48.595253,65.575790 35.589798,69.911011 26.861197,83.253166 
	C18.998371,95.271927 18.465849,107.976952 25.958662,120.385620 
	C34.567257,134.642090 47.914223,139.296753 64.422974,138.036209 
	C64.422974,129.744141 64.422974,121.622231 64.423050,112.500320 
M257.006592,103.400993 
	C256.938141,78.089622 234.518219,63.080601 214.303955,67.403885 
	C214.303955,90.945213 214.303955,114.469734 214.303955,137.940948 
	C236.398712,140.695557 255.146439,126.758072 257.006592,103.400993 
z"/>
<path fill="#0A0C0D" opacity="1.000000" stroke="none" 
	d="
M186.014877,138.227646 
	C182.859955,138.227646 180.202286,138.227646 176.868515,138.227646 
	C176.868515,136.491806 176.868515,134.900146 176.868515,133.308472 
	C176.868515,115.476364 176.882843,97.644249 176.864563,79.812164 
	C176.845642,61.356197 164.193634,46.024059 146.560028,43.042984 
	C127.770500,39.866486 109.913742,49.869972 103.881775,67.244629 
	C102.705795,70.631927 102.154945,74.396164 102.122314,77.993851 
	C101.945457,97.490662 102.022903,116.989777 102.002563,136.488083 
	C102.002235,136.803070 101.873283,137.117920 101.717529,137.829376 
	C93.779678,137.829376 85.755859,137.829376 77.263542,137.829376 
	C77.263542,132.054199 77.231064,126.425476 77.269669,120.797241 
	C77.382744,104.312988 76.260056,87.698975 77.938347,71.373985 
	C80.747650,44.047623 102.822701,22.610897 130.025223,18.496256 
	C161.647629,13.713068 192.521484,34.310631 199.955017,65.291542 
	C200.879105,69.142891 201.453079,73.174553 201.482727,77.127975 
	C201.633820,97.265862 201.552475,117.405487 201.552475,138.227646 
	C196.359116,138.227646 191.435623,138.227646 186.014877,138.227646 
z"/>
<path fill="#0A0C0D" opacity="1.000000" stroke="none" 
	d="
M64.423012,113.000320 
	C64.422974,121.622231 64.422974,129.744141 64.422974,138.036209 
	C47.914223,139.296753 34.567257,134.642090 25.958662,120.385620 
	C18.465849,107.976952 18.998371,95.271927 26.861197,83.253166 
	C35.589798,69.911011 48.595253,65.575790 64.423050,66.875893 
	C64.423050,82.240471 64.423050,97.370392 64.423012,113.000320 
M36.713398,93.536148 
	C31.754967,107.072563 38.570702,121.284973 50.703926,122.927292 
	C50.703926,109.235756 50.703926,95.531197 50.703926,81.449165 
	C44.246456,83.445267 40.209301,87.609871 36.713398,93.536148 
z"/>
<path fill="#0A0C0D" opacity="1.000000" stroke="none" 
	d="
M257.002014,103.854774 
	C255.146439,126.758072 236.398712,140.695557 214.303955,137.940948 
	C214.303955,114.469734 214.303955,90.945213 214.303955,67.403885 
	C234.518219,63.080601 256.938141,78.089622 257.002014,103.854774 
M232.614334,121.436295 
	C240.704620,115.797661 244.647293,108.131821 242.780365,98.323303 
	C241.188736,89.961082 236.006088,84.306511 227.505676,81.168610 
	C227.505676,95.501541 227.505676,109.285812 227.505676,123.605728 
	C229.279800,122.887398 230.605347,122.350693 232.614334,121.436295 
z"/>
<path fill="#F9FAFA" opacity="1.000000" stroke="none" 
	d="
M36.882812,93.188492 
	C40.209301,87.609871 44.246456,83.445267 50.703926,81.449165 
	C50.703926,95.531197 50.703926,109.235756 50.703926,122.927292 
	C38.570702,121.284973 31.754967,107.072563 36.882812,93.188492 
z"/>
<path fill="#F4F4F4" opacity="1.000000" stroke="none" 
	d="
M232.272614,121.625137 
	C230.605347,122.350693 229.279800,122.887398 227.505676,123.605728 
	C227.505676,109.285812 227.505676,95.501541 227.505676,81.168610 
	C236.006088,84.306511 241.188736,89.961082 242.780365,98.323303 
	C244.647293,108.131821 240.704620,115.797661 232.272614,121.625137 
z"/>
</svg>