<svg width="144" height="55" viewBox="0 0 144 55" fill="none" xmlns="http://www.w3.org/2000/svg">
<path d="M86.6318 12.4277C87.7236 12.7747 88.5658 13.3122 89.1582 14.04C89.7507 14.7679 90.0469 15.6523 90.0469 16.6934C90.0469 18.3776 89.4417 19.6852 88.2314 20.6162C87.0296 21.5387 85.3369 22 83.1533 22H76.1074V3.56641H82.6328C84.7995 3.56641 86.471 3.99382 87.6475 4.84863C88.8239 5.69499 89.4121 6.88835 89.4121 8.42871C89.4121 10.3161 88.4854 11.5983 86.6318 12.2754V12.4277ZM82.4297 11.1582C84.4694 11.1582 85.4893 10.333 85.4893 8.68262C85.4893 7.15918 84.4694 6.39746 82.4297 6.39746H79.8271V11.1582H82.4297ZM82.9502 19.1689C83.932 19.1689 84.6937 18.932 85.2354 18.458C85.7855 17.9756 86.0605 17.3027 86.0605 16.4395C86.0605 15.61 85.7728 14.9837 85.1973 14.5605C84.6302 14.1289 83.7923 13.9131 82.6836 13.9131H79.8271V19.1689H82.9502ZM98.7305 8.06055C100.973 8.06055 102.691 8.67415 103.885 9.90137C105.078 11.1201 105.675 12.8721 105.675 15.1572C105.675 17.4424 105.078 19.2028 103.885 20.4385C102.691 21.6742 100.973 22.292 98.7305 22.292C96.513 22.292 94.8034 21.6784 93.6016 20.4512C92.3997 19.2155 91.7988 17.4508 91.7988 15.1572C91.7988 12.8721 92.3955 11.1201 93.5889 9.90137C94.7822 8.67415 96.4961 8.06055 98.7305 8.06055ZM98.7305 10.9805C96.7246 10.972 95.7217 12.3643 95.7217 15.1572C95.7217 17.9502 96.7246 19.3467 98.7305 19.3467C100.745 19.3467 101.752 17.9502 101.752 15.1572C101.752 12.3643 100.745 10.972 98.7305 10.9805ZM114.27 8.06055C116.512 8.06055 118.23 8.67415 119.424 9.90137C120.617 11.1201 121.214 12.8721 121.214 15.1572C121.214 17.4424 120.617 19.2028 119.424 20.4385C118.23 21.6742 116.512 22.292 114.27 22.292C112.052 22.292 110.342 21.6784 109.141 20.4512C107.939 19.2155 107.338 17.4508 107.338 15.1572C107.338 12.8721 107.935 11.1201 109.128 9.90137C110.321 8.67415 112.035 8.06055 114.27 8.06055ZM114.27 10.9805C112.264 10.972 111.261 12.3643 111.261 15.1572C111.261 17.9502 112.264 19.3467 114.27 19.3467C116.284 19.3467 117.291 17.9502 117.291 15.1572C117.291 12.3643 116.284 10.972 114.27 10.9805ZM123.905 2.37305H127.815V22H123.905V2.37305ZM137.324 22H132.982L128.069 14.4336L132.386 8.37793H136.524L132.132 14.3066L137.324 22ZM81.9854 28.3379C83.5088 28.3294 85.2227 28.6637 87.127 29.3408L86.3271 32.3877C84.5583 31.7614 83.1195 31.4482 82.0107 31.4482C81.1136 31.4482 80.4069 31.626 79.8906 31.9814C79.3743 32.3369 79.1162 32.8193 79.1162 33.4287C79.1162 34.0889 79.3532 34.6136 79.8271 35.0029C80.3096 35.3923 81.1855 35.752 82.4551 36.082C84.3255 36.5645 85.6543 37.2331 86.4414 38.0879C87.2285 38.9342 87.6221 40.1022 87.6221 41.5918C87.6221 43.3945 87.0127 44.7783 85.7939 45.7432C84.5837 46.6995 82.8529 47.1777 80.6016 47.1777C78.765 47.1777 76.7972 46.763 74.6982 45.9336L75.6377 42.9756C76.7972 43.3903 77.7451 43.6823 78.4814 43.8516C79.2178 44.0124 79.916 44.0928 80.5762 44.0928C81.5326 44.0928 82.2689 43.8896 82.7852 43.4834C83.3099 43.0687 83.5723 42.4974 83.5723 41.7695C83.5723 41.304 83.4622 40.9147 83.2422 40.6016C83.0221 40.2884 82.6497 40.0091 82.125 39.7637C81.6003 39.5098 80.8428 39.2601 79.8525 39.0146C78.2021 38.6169 76.9961 37.999 76.2344 37.1611C75.4727 36.3232 75.0918 35.2188 75.0918 33.8477C75.0918 32.0957 75.6927 30.7415 76.8945 29.7852C78.1048 28.8203 79.8018 28.3379 81.9854 28.3379ZM98.7686 46.4795C97.5921 46.9619 96.4665 47.2031 95.3916 47.2031C92.3955 47.2031 90.8975 45.7728 90.8975 42.9121V36.1074H88.6504V33.3779H91.1514L91.9004 29.4805H94.7695V33.3779H98.4893V36.1074H94.7695V42.3662C94.7695 43.0602 94.8965 43.5553 95.1504 43.8516C95.4128 44.1478 95.8571 44.2959 96.4834 44.2959C97.0166 44.2959 97.5879 44.1901 98.1973 43.9785L98.7686 46.4795ZM107.033 33.0605C109.276 33.0605 110.994 33.6742 112.188 34.9014C113.381 36.1201 113.978 37.8721 113.978 40.1572C113.978 42.4424 113.381 44.2028 112.188 45.4385C110.994 46.6742 109.276 47.292 107.033 47.292C104.816 47.292 103.106 46.6784 101.904 45.4512C100.702 44.2155 100.102 42.4508 100.102 40.1572C100.102 37.8721 100.698 36.1201 101.892 34.9014C103.085 33.6742 104.799 33.0605 107.033 33.0605ZM107.033 35.9805C105.027 35.972 104.024 37.3643 104.024 40.1572C104.024 42.9502 105.027 44.3467 107.033 44.3467C109.048 44.3467 110.055 42.9502 110.055 40.1572C110.055 37.3643 109.048 35.972 107.033 35.9805ZM120.211 35.2695C121.066 33.8646 122.263 33.1621 123.804 33.1621C124.134 33.1621 124.413 33.1833 124.642 33.2256C124.879 33.2594 125.179 33.3271 125.543 33.4287L125.099 36.8311C124.371 36.5687 123.728 36.4417 123.169 36.4502C122.56 36.4502 122.043 36.5602 121.62 36.7803C121.197 36.9919 120.841 37.3304 120.554 37.7959V47H116.644V33.3779H119.741L120.211 35.2695ZM130.05 40.9189C130.253 43.238 131.446 44.3975 133.63 44.3975C134.307 44.3975 134.988 44.3213 135.674 44.1689C136.359 44.0081 137.117 43.7542 137.946 43.4072L138.886 45.832C136.821 46.7884 134.912 47.2624 133.16 47.2539C131.01 47.2539 129.322 46.6276 128.095 45.375C126.868 44.1224 126.254 42.3831 126.254 40.1572C126.254 37.9398 126.855 36.2132 128.057 34.9775C129.258 33.7334 130.943 33.1113 133.109 33.1113C137.18 33.1113 139.216 35.4176 139.216 40.0303V40.9189H130.05ZM135.636 38.6592C135.526 36.7633 134.692 35.8154 133.135 35.8154C132.271 35.8154 131.59 36.0524 131.091 36.5264C130.6 36.9919 130.278 37.7028 130.126 38.6592H135.636Z" fill="black"/>
<g clip-path="url(#clip0_10_65)">
<path d="M19.5802 5.69209C14.6489 7.01395 9.74351 8.30884 8.67939 8.57861L6.73283 9.03721L6.65496 10.5479C6.60306 11.654 6.68092 12.1126 6.94046 12.2205C7.12214 12.3014 11.6641 13.3535 17.0107 14.5674C37.1252 19.1805 35.2565 18.6679 35.4382 19.5851C35.7237 20.907 35.6718 23.5507 35.3344 24.5488C35.1008 25.2502 34.8931 25.4661 34.5038 25.4121C33.9588 25.3312 28.5603 23.9823 15.3237 20.6372C10.9115 19.5312 7.14809 18.614 6.96641 18.614C6.73283 18.614 6.60306 18.9377 6.60306 19.5042C6.60306 20.3405 6.49924 20.4484 5.59084 20.7181C4.57863 21.0419 4.26718 21.5274 4.26718 22.7954C4.26718 23.2809 5.01985 23.4967 13.0397 25.1693C17.8412 26.1944 24.7191 27.6242 28.2748 28.3795C31.8565 29.1349 34.9191 29.8902 35.1267 30.0791C35.6199 30.5916 35.8015 34.1526 35.4122 35.8521C35.2565 36.6074 35.0748 37.2279 35.0489 37.2279C34.971 37.2279 27.9893 35.6093 13.5328 32.2642C8.70535 31.1312 4.7084 30.214 4.63054 30.214C4.57863 30.214 4.52672 30.0251 4.52672 29.7823C4.52672 29.4047 4.34504 29.3777 3.41069 29.5126C1.98321 29.7554 1.77557 29.9981 1.25649 32.0754C0.815268 33.9367 0.893131 35.2856 1.59389 37.6865C1.98321 39.0623 2.03512 39.1163 5.27939 41.2205C17.0886 48.9358 25.9389 54.574 26.3542 54.6819C26.6137 54.7628 35.0229 52.9014 45.0153 50.5544L63.1832 46.2921L63.0275 45.3209C62.9237 44.8084 62.7939 44.2958 62.6901 44.1879C62.6122 44.107 59.5496 44.7274 55.916 45.5907C46.8061 47.7219 34.3481 50.6354 30.6107 51.5256L27.4962 52.254L27.1328 51.4177C26.6657 50.3386 26.458 45.7795 26.8214 44.3767L27.0809 43.2977L45.145 39.5209L63.1832 35.7442V34.5033V33.2623L58.0702 31.8326C55.2412 31.0502 52.542 30.2679 52.1008 30.1061L51.2443 29.8093L54.0992 27.9479L56.9542 26.1135L57.3695 24.6028C57.655 23.5777 57.7588 22.4986 57.6809 21.1498C57.5252 18.7219 57.0321 17.8047 55.8382 17.7777C55.397 17.7507 54.6702 17.6698 54.229 17.5619L53.4504 17.4L54.4107 16.8065C55.9939 15.8354 56.5909 12.8949 55.7863 10.0623C55.4229 8.79442 55.3191 8.68651 54.4107 8.49768C53.8916 8.41674 48.0519 7.17582 41.4336 5.77303C34.8412 4.37024 29.2351 3.23721 28.9756 3.26419C28.742 3.26419 24.5115 4.37024 19.5802 5.69209Z" fill="black"/>
<path d="M44.6519 41.2474C35.0229 43.3247 28.7939 44.7814 28.716 44.9972C28.6641 45.186 28.742 45.3209 28.8977 45.3209C29.1832 45.3209 60.458 38.6307 61.1847 38.4149C61.8336 38.1991 61.7298 37.7674 61.055 37.7944C60.7176 37.7944 53.3466 39.3591 44.6519 41.2474Z" fill="black"/>
<path d="M59.8092 40.0874C58.8748 40.2763 55.5527 40.9777 52.4122 41.6791C49.2718 42.3535 45.8977 43.0819 44.8855 43.2977C43.8992 43.4865 40.4992 44.2149 37.3588 44.9163C34.2183 45.5907 31.0779 46.2651 30.3771 46.427C29.0275 46.6967 28.742 46.8316 29.0015 47.1014C29.1832 47.2902 29.0275 47.3172 47.7405 43.2977C55.0336 41.733 61.2107 40.3572 61.4702 40.2493C62.4305 39.8177 61.4962 39.7367 59.8092 40.0874Z" fill="black"/>
<path d="M57.6031 42.893C55.7603 43.2977 52.4901 43.9991 50.3359 44.4577C48.2076 44.9163 43.8733 45.8605 40.7328 46.5349C37.5924 47.2093 33.855 48.0186 32.4275 48.3153C29.1832 48.9898 28.9237 49.0707 28.9237 49.4214C28.9237 49.5833 29.2092 49.6372 29.6504 49.5563C41.0702 47.0474 61.6519 42.6233 61.8076 42.6233C61.8336 42.6233 61.8855 42.4884 61.8855 42.3535C61.8855 41.9758 61.4702 42.0298 57.6031 42.893Z" fill="black"/>
</g>
<defs>
<clipPath id="clip0_10_65">
<rect width="64" height="52" fill="white" transform="translate(0 3)"/>
</clipPath>
</defs>
</svg>
