<?xml version="1.0" standalone="no"?>
<!DOCTYPE svg PUBLIC "-//W3C//DTD SVG 20010904//EN"
 "http://www.w3.org/TR/2001/REC-SVG-20010904/DTD/svg10.dtd">
<svg version="1.0" xmlns="http://www.w3.org/2000/svg"
 width="512.000000pt" height="512.000000pt" viewBox="0 0 512.000000 512.000000"
 preserveAspectRatio="xMidYMid meet">

<g transform="translate(0.000000,512.000000) scale(0.100000,-0.100000)"
fill="#000000" stroke="none">
<path d="M175 4337 c-81 -32 -132 -84 -161 -164 -11 -31 -13 -245 -14 -1180
l0 -1142 23 -27 c20 -23 34 -28 85 -32 l62 -4 0 -144 c0 -168 16 -227 77 -286
67 -63 94 -72 236 -76 l127 -4 0 -25 c0 -40 58 -174 103 -238 77 -109 212
-198 350 -230 122 -29 265 -13 388 44 155 70 287 234 322 399 l11 52 776 0
776 0 11 -52 c55 -258 308 -458 577 -458 188 1 378 97 483 245 45 65 103 198
103 239 l0 25 213 3 c236 3 256 8 323 80 73 77 69 31 69 738 l0 635 -22 42
c-13 23 -166 203 -341 401 -284 319 -324 360 -370 380 -50 21 -60 22 -466 22
l-415 0 -3 288 c-3 267 -4 290 -24 332 -27 58 -67 97 -129 126 l-50 24 -1545
-1 c-1157 0 -1553 -3 -1575 -12z m3122 -181 l28 -24 3 -1086 2 -1086 -1580 0
-1580 0 0 1081 0 1081 29 29 29 29 1521 0 1520 0 28 -24z m543 -1190 c0 -371
2 -451 15 -487 33 -92 102 -150 200 -168 36 -7 221 -11 477 -11 l418 0 0 -396
0 -396 -29 -29 -30 -29 -187 2 -187 3 -13 51 c-44 173 -165 322 -320 394 -115
54 -159 60 -433 60 l-251 0 0 725 0 725 170 0 170 0 0 -444z m494 422 c60 -55
606 -681 611 -701 3 -12 5 -65 3 -117 l-3 -95 -414 -3 c-265 -1 -427 2 -452 8
-70 19 -69 14 -69 500 l0 430 149 0 c141 0 151 -1 175 -22z m-3584 -1625 c-77
-100 -99 -144 -146 -301 -3 -11 -28 -13 -109 -10 -149 4 -149 4 -153 193 l-3
145 216 0 217 0 -22 -27z m554 12 c224 -58 359 -290 301 -515 -82 -318 -477
-426 -709 -194 -190 189 -160 503 61 650 106 70 226 90 347 59z m746 -155 l0
-170 -135 0 c-133 0 -135 0 -135 23 -1 60 -65 192 -140 290 l-22 27 216 0 216
0 0 -170z m770 0 l0 -170 -300 0 -300 0 0 170 0 170 300 0 300 0 0 -170z m660
143 c-75 -98 -139 -230 -140 -290 0 -23 0 -23 -175 -23 l-175 0 0 170 0 170
256 0 256 0 -22 -27z m561 11 c139 -41 247 -147 291 -286 70 -227 -69 -473
-302 -534 -311 -81 -596 207 -515 520 59 226 303 365 526 300z"/>
<path d="M1115 1607 c-117 -47 -183 -146 -173 -261 15 -174 196 -285 350 -214
67 32 104 69 136 136 55 119 -2 268 -124 327 -47 23 -148 29 -189 12z m136
-186 c17 -18 29 -40 29 -56 0 -35 -50 -85 -85 -85 -32 0 -85 49 -85 79 0 81
85 118 141 62z"/>
<path d="M3845 1607 c-81 -33 -138 -90 -163 -166 -55 -160 87 -342 256 -329
143 11 237 112 237 253 0 106 -49 186 -141 230 -47 23 -148 29 -189 12z m118
-168 c27 -12 47 -47 47 -80 0 -30 -53 -79 -85 -79 -35 0 -85 50 -85 85 0 32
49 85 79 85 11 0 31 -5 44 -11z"/>
</g>
</svg>
