<svg version="1.1" id="Layer_1" xmlns="http://www.w3.org/2000/svg" xmlns:xlink="http://www.w3.org/1999/xlink" x="0px" y="0px"
	 width="100%" viewBox="0 0 188 193" enable-background="new 0 0 188 193" xml:space="preserve">
<path fill="#FEFEFE" opacity="0.000000" stroke="none" 
	d="
M189.000000,78.000000 
	C189.000000,117.000000 189.000000,155.500000 189.000000,194.000000 
	C126.333336,194.000000 63.666668,194.000000 1.000000,194.000000 
	C1.000000,129.666672 1.000000,65.333336 1.000000,1.000000 
	C63.666668,1.000000 126.333336,1.000000 189.000000,1.000000 
	C189.000000,26.500000 189.000000,52.000000 189.000000,78.000000 
M89.471405,176.406799 
	C92.363434,176.879257 93.029816,175.584167 93.034714,172.800766 
	C93.075432,149.653397 93.330124,126.506325 93.331001,103.359154 
	C93.331070,101.494995 92.320190,99.290428 91.082222,97.838066 
	C88.572227,94.893402 88.173553,92.275505 91.124756,89.610046 
	C93.913506,87.091301 98.579323,87.505943 100.942169,90.509903 
	C103.185341,93.361725 102.434502,95.835487 100.050873,98.440887 
	C98.693642,99.924393 97.449738,102.193451 97.434555,104.118866 
	C97.255966,126.776619 97.319855,149.436279 97.319862,172.095428 
	C97.319862,173.372177 97.319862,174.648911 97.319862,175.992111 
	C100.223045,175.992111 102.583160,175.992111 104.927994,175.992111 
	C105.045738,175.093689 105.168205,174.603256 105.165894,174.113419 
	C105.015892,142.322159 114.854729,114.628517 138.607819,92.659622 
	C141.713562,89.787163 141.417313,87.167152 138.774918,84.063515 
	C132.688736,76.914955 128.888794,68.891541 129.045746,59.142220 
	C129.284409,44.317650 129.019119,29.485523 129.163940,14.658522 
	C129.205811,10.373107 127.679672,8.814979 123.302185,8.855812 
	C104.143532,9.034526 84.981323,9.034521 65.822693,8.854895 
	C61.507019,8.814432 59.937943,10.125595 60.008080,14.559814 
	C60.229385,28.551674 59.789448,42.557793 60.187653,56.541809 
	C60.489033,67.125641 57.177654,76.139587 50.497734,84.082268 
	C47.756863,87.341263 48.087608,89.704910 50.974266,93.080940 
	C58.074749,101.385162 65.503265,109.659004 71.053757,118.984360 
	C81.380150,136.333679 85.406578,155.663620 85.124550,176.068024 
	C86.349319,176.187164 87.477913,176.296951 89.471405,176.406799 
z"/>
<path fill="#080B0B" opacity="1.000000" stroke="none" 
	d="
M89.038956,176.406769 
	C87.477913,176.296951 86.349319,176.187164 85.124550,176.068024 
	C85.406578,155.663620 81.380150,136.333679 71.053757,118.984360 
	C65.503265,109.659004 58.074749,101.385162 50.974266,93.080940 
	C48.087608,89.704910 47.756863,87.341263 50.497734,84.082268 
	C57.177654,76.139587 60.489033,67.125641 60.187653,56.541809 
	C59.789448,42.557793 60.229385,28.551674 60.008080,14.559814 
	C59.937943,10.125595 61.507019,8.814432 65.822693,8.854895 
	C84.981323,9.034521 104.143532,9.034526 123.302185,8.855812 
	C127.679672,8.814979 129.205811,10.373107 129.163940,14.658522 
	C129.019119,29.485523 129.284409,44.317650 129.045746,59.142220 
	C128.888794,68.891541 132.688736,76.914955 138.774918,84.063515 
	C141.417313,87.167152 141.713562,89.787163 138.607819,92.659622 
	C114.854729,114.628517 105.015892,142.322159 105.165894,174.113419 
	C105.168205,174.603256 105.045738,175.093689 104.927994,175.992111 
	C102.583160,175.992111 100.223045,175.992111 97.319862,175.992111 
	C97.319862,174.648911 97.319862,173.372177 97.319862,172.095428 
	C97.319855,149.436279 97.255966,126.776619 97.434555,104.118866 
	C97.449738,102.193451 98.693642,99.924393 100.050873,98.440887 
	C102.434502,95.835487 103.185341,93.361725 100.942169,90.509903 
	C98.579323,87.505943 93.913506,87.091301 91.124756,89.610046 
	C88.173553,92.275505 88.572227,94.893402 91.082222,97.838066 
	C92.320190,99.290428 93.331070,101.494995 93.331001,103.359154 
	C93.330124,126.506325 93.075432,149.653397 93.034714,172.800766 
	C93.029816,175.584167 92.363434,176.879257 89.038956,176.406769 
M113.475082,33.006420 
	C117.090942,33.006420 120.706802,33.006420 124.339432,33.006420 
	C124.339432,26.182335 124.339432,19.837791 124.339432,13.667171 
	C104.031952,13.667171 84.165718,13.667171 64.008247,13.667171 
	C64.008247,18.534376 64.312515,23.038610 63.923546,27.482162 
	C63.526409,32.018948 65.325348,33.148109 69.582359,33.085850 
	C83.880112,32.876724 98.182816,33.006405 113.475082,33.006420 
z"/>
<path fill="#F8F8F8" opacity="1.000000" stroke="none" 
	d="
M112.979355,33.006420 
	C98.182816,33.006405 83.880112,32.876724 69.582359,33.085850 
	C65.325348,33.148109 63.526409,32.018948 63.923546,27.482162 
	C64.312515,23.038610 64.008247,18.534376 64.008247,13.667171 
	C84.165718,13.667171 104.031952,13.667171 124.339432,13.667171 
	C124.339432,19.837791 124.339432,26.182335 124.339432,33.006420 
	C120.706802,33.006420 117.090942,33.006420 112.979355,33.006420 
z"/>
</svg>