<svg version="1.1" id="Layer_1" xmlns="http://www.w3.org/2000/svg" xmlns:xlink="http://www.w3.org/1999/xlink" x="0px" y="0px"
	 width="100%" viewBox="0 0 280 208" enable-background="new 0 0 280 208" xml:space="preserve">
<path fill="#FEFEFE" opacity="0.000000" stroke="none" 
	d="
M195.000000,209.000000 
	C130.000015,209.000000 65.500015,209.000000 1.000017,209.000000 
	C1.000012,139.666687 1.000012,70.333366 1.000006,1.000036 
	C94.333305,1.000024 187.666611,1.000024 280.999939,1.000012 
	C280.999939,70.333298 280.999939,139.666595 280.999969,208.999939 
	C252.500000,209.000000 224.000000,209.000000 195.000000,209.000000 
M41.556469,36.081142 
	C34.052570,45.558613 34.510830,56.235039 43.469288,64.222267 
	C48.241077,68.476730 53.894890,71.747383 59.182663,75.415871 
	C63.319248,78.285706 67.505188,81.084396 71.662178,83.909920 
	C61.763729,91.112328 52.194969,97.492081 43.313171,104.716408 
	C35.804298,110.823997 34.551636,119.847733 38.752132,128.529205 
	C42.826195,136.949371 51.378696,141.766663 59.677586,140.870773 
	C70.322227,139.721649 76.741470,129.998199 78.006683,122.997795 
	C79.518440,114.633308 76.051575,108.198181 69.909912,103.020393 
	C74.794044,99.244453 79.338615,95.731033 83.892021,92.210777 
	C91.471581,97.483841 98.495850,102.834862 105.979591,107.439056 
	C112.706985,111.577919 119.727020,115.418472 127.027237,118.382668 
	C131.437988,120.173615 136.382172,119.093575 140.651978,115.082138 
	C125.644287,104.672707 111.012993,94.524353 95.942390,84.071289 
	C111.271988,73.461639 125.957924,63.297474 140.643860,53.133308 
	C140.560150,52.527157 140.476440,51.921009 140.392731,51.314857 
	C136.253357,50.811165 131.857361,49.189472 128.034988,50.066841 
	C122.357658,51.369980 116.722946,53.845467 111.722710,56.892818 
	C103.069786,62.166271 94.943565,68.299973 86.521530,73.961441 
	C85.479301,74.662048 83.600563,75.370102 82.756203,74.903740 
	C78.308029,72.446930 74.067459,69.614243 71.032799,67.712746 
	C73.531593,62.348003 76.565163,57.718880 77.852943,52.646530 
	C79.999924,44.189964 75.262253,35.561165 67.206017,31.107271 
	C59.254604,26.711329 49.796585,28.368851 41.556469,36.081142 
M76.050751,175.362305 
	C76.050751,171.566437 76.050751,167.770584 76.050751,163.779999 
	C72.173607,163.779999 68.624306,163.779999 64.975967,163.779999 
	C64.975967,172.797852 64.975967,181.500061 64.975967,190.343765 
	C74.359756,190.343765 83.426445,190.343765 92.565910,190.343765 
	C92.565910,186.559631 92.565910,183.034195 92.565910,179.184235 
	C87.911179,179.184235 83.613831,179.108932 79.321022,179.216110 
	C77.188080,179.269379 75.663483,178.970963 76.050751,175.362305 
M242.999023,190.594498 
	C243.629761,189.828918 244.795883,189.072189 244.808701,188.296417 
	C244.942459,180.194046 244.891205,172.088623 244.891205,163.757904 
	C240.914688,163.757904 237.359268,163.757904 233.276093,163.757904 
	C233.276093,168.948547 233.276093,173.849777 233.276093,179.205811 
	C227.689316,179.205811 222.614853,179.205811 217.385956,179.205811 
	C217.385956,183.216599 217.385956,186.739899 217.385956,190.610718 
	C225.836380,190.610718 233.957474,190.610718 242.999023,190.594498 
M217.234360,82.800209 
	C217.234360,86.041405 217.234360,89.282593 217.234360,92.989922 
	C222.842148,92.989922 227.911560,92.989922 233.432220,92.989922 
	C233.432220,98.548973 233.432220,103.631401 233.432220,108.727722 
	C237.470306,108.727722 241.035782,108.727722 244.552231,108.727722 
	C244.552231,99.713943 244.552231,91.001579 244.552231,82.121452 
	C235.440094,82.121452 226.664200,82.121452 217.234360,82.800209 
M233.365692,128.554672 
	C233.365692,136.794586 233.365692,145.034500 233.365692,153.407120 
	C237.505875,153.407120 241.040359,153.407120 244.553833,153.407120 
	C244.553833,141.716644 244.553833,130.379471 244.553833,119.048767 
	C240.762238,119.048767 237.316605,119.048767 233.365723,119.048767 
	C233.365723,122.016190 233.365723,124.794998 233.365692,128.554672 
M140.072128,184.524826 
	C140.072128,186.437271 140.072128,188.349701 140.072128,190.354034 
	C150.109375,190.354034 159.483154,190.354034 169.021179,190.354034 
	C169.021179,186.543823 169.021179,183.010696 169.021179,179.453186 
	C159.279327,179.453186 149.897797,179.453186 140.286804,179.453186 
	C140.205765,181.019913 140.138962,182.311661 140.072128,184.524826 
M130.297363,185.405014 
	C130.297363,183.446030 130.297363,181.487061 130.297363,179.502045 
	C120.704445,179.502045 111.649422,179.502045 102.403198,179.502045 
	C102.403198,183.256256 102.403198,186.660934 102.403198,190.345184 
	C111.727783,190.345184 120.782082,190.345184 130.297348,190.345184 
	C130.297348,188.851379 130.297348,187.557388 130.297363,185.405014 
M197.431335,179.154816 
	C191.501465,179.154816 185.571579,179.154816 179.371735,179.154816 
	C179.371735,183.170090 179.371735,186.574890 179.371735,190.257553 
	C188.682190,190.257553 197.836426,190.257553 207.007858,190.257553 
	C207.007858,186.446152 207.007858,183.007172 207.007858,179.154831 
	C203.982986,179.154831 201.193985,179.154831 197.431335,179.154816 
M202.208954,92.846313 
	C203.788162,92.758011 205.367371,92.669708 206.835266,92.587631 
	C206.835266,88.765083 206.835266,85.385010 206.835266,82.150467 
	C197.501648,82.150467 188.573196,82.150467 179.514709,82.150467 
	C179.514709,85.762726 179.514709,89.121834 179.514709,92.846313 
	C187.035477,92.846313 194.151367,92.846313 202.208954,92.846313 
M169.345856,83.957863 
	C168.925323,83.323067 168.511108,82.139168 168.083344,82.134239 
	C158.843796,82.028030 149.602753,82.053459 140.396362,82.053459 
	C140.396362,85.942886 140.396362,89.186874 140.396362,92.530045 
	C150.107727,92.530045 159.500122,92.530045 169.363144,92.530045 
	C169.363144,89.756157 169.363144,87.292030 169.345856,83.957863 
M128.926224,92.805969 
	C129.532120,89.328468 130.138031,85.850967 130.946777,81.209343 
	C123.248810,83.279602 116.290520,79.576393 109.400574,84.571861 
	C115.789345,88.382179 120.200317,94.300789 128.926224,92.805969 
M67.617775,146.240005 
	C63.274059,147.428574 64.685799,150.523071 64.980553,153.399536 
	C68.800629,153.399536 72.328613,153.399536 75.707016,153.399536 
	C75.707016,149.502899 75.707016,145.980957 75.707016,142.255554 
	C73.002007,143.651230 70.675316,144.851715 67.617775,146.240005 
z"/>
<path fill="#0D0F10" opacity="1.000000" stroke="none" 
	d="
M41.785912,35.801548 
	C49.796585,28.368851 59.254604,26.711329 67.206017,31.107271 
	C75.262253,35.561165 79.999924,44.189964 77.852943,52.646530 
	C76.565163,57.718880 73.531593,62.348003 71.032799,67.712746 
	C74.067459,69.614243 78.308029,72.446930 82.756203,74.903740 
	C83.600563,75.370102 85.479301,74.662048 86.521530,73.961441 
	C94.943565,68.299973 103.069786,62.166271 111.722710,56.892818 
	C116.722946,53.845467 122.357658,51.369980 128.034988,50.066841 
	C131.857361,49.189472 136.253357,50.811165 140.392731,51.314857 
	C140.476440,51.921009 140.560150,52.527157 140.643860,53.133308 
	C125.957924,63.297474 111.271988,73.461639 95.942390,84.071289 
	C111.012993,94.524353 125.644287,104.672707 140.651978,115.082138 
	C136.382172,119.093575 131.437988,120.173615 127.027237,118.382668 
	C119.727020,115.418472 112.706985,111.577919 105.979591,107.439056 
	C98.495850,102.834862 91.471581,97.483841 83.892021,92.210777 
	C79.338615,95.731033 74.794044,99.244453 69.909912,103.020393 
	C76.051575,108.198181 79.518440,114.633308 78.006683,122.997795 
	C76.741470,129.998199 70.322227,139.721649 59.677586,140.870773 
	C51.378696,141.766663 42.826195,136.949371 38.752132,128.529205 
	C34.551636,119.847733 35.804298,110.823997 43.313171,104.716408 
	C52.194969,97.492081 61.763729,91.112328 71.662178,83.909920 
	C67.505188,81.084396 63.319248,78.285706 59.182663,75.415871 
	C53.894890,71.747383 48.241077,68.476730 43.469288,64.222267 
	C34.510830,56.235039 34.052570,45.558613 41.785912,35.801548 
M60.570068,59.599571 
	C63.066441,57.599663 66.312157,56.061176 67.891403,53.496529 
	C70.558380,49.165432 68.687126,43.435265 64.561523,40.229652 
	C60.967735,37.437263 55.137547,37.017494 51.950157,39.321655 
	C46.402046,43.332382 44.880066,47.872131 47.070538,53.876583 
	C48.495037,57.781376 54.482773,60.640957 60.570068,59.599571 
M46.427464,118.074753 
	C45.732101,124.214500 49.519993,130.421158 54.766426,130.677704 
	C61.661659,131.014862 67.399078,128.911346 68.803520,121.820854 
	C69.881187,116.380104 66.365417,111.226036 60.146114,109.430641 
	C54.619370,107.835182 48.684692,111.323761 46.427464,118.074753 
z"/>
<path fill="#0C0C0C" opacity="1.000000" stroke="none" 
	d="
M76.051064,175.845123 
	C75.663483,178.970963 77.188080,179.269379 79.321022,179.216110 
	C83.613831,179.108932 87.911179,179.184235 92.565910,179.184235 
	C92.565910,183.034195 92.565910,186.559631 92.565910,190.343765 
	C83.426445,190.343765 74.359756,190.343765 64.975967,190.343765 
	C64.975967,181.500061 64.975967,172.797852 64.975967,163.779999 
	C68.624306,163.779999 72.173607,163.779999 76.050751,163.779999 
	C76.050751,167.770584 76.050751,171.566437 76.051064,175.845123 
z"/>
<path fill="#101010" opacity="1.000000" stroke="none" 
	d="
M242.538803,190.602600 
	C233.957474,190.610718 225.836380,190.610718 217.385956,190.610718 
	C217.385956,186.739899 217.385956,183.216599 217.385956,179.205811 
	C222.614853,179.205811 227.689316,179.205811 233.276093,179.205811 
	C233.276093,173.849777 233.276093,168.948547 233.276093,163.757904 
	C237.359268,163.757904 240.914688,163.757904 244.891205,163.757904 
	C244.891205,172.088623 244.942459,180.194046 244.808701,188.296417 
	C244.795883,189.072189 243.629761,189.828918 242.538803,190.602600 
z"/>
<path fill="#0E0E0E" opacity="1.000000" stroke="none" 
	d="
M217.561325,82.460831 
	C226.664200,82.121452 235.440094,82.121452 244.552231,82.121452 
	C244.552231,91.001579 244.552231,99.713943 244.552231,108.727722 
	C241.035782,108.727722 237.470306,108.727722 233.432220,108.727722 
	C233.432220,103.631401 233.432220,98.548973 233.432220,92.989922 
	C227.911560,92.989922 222.842148,92.989922 217.234360,92.989922 
	C217.234360,89.282593 217.234360,86.041405 217.561325,82.460831 
z"/>
<path fill="#111111" opacity="1.000000" stroke="none" 
	d="
M233.365707,128.064240 
	C233.365723,124.794998 233.365723,122.016190 233.365723,119.048767 
	C237.316605,119.048767 240.762238,119.048767 244.553833,119.048767 
	C244.553833,130.379471 244.553833,141.716644 244.553833,153.407120 
	C241.040359,153.407120 237.505875,153.407120 233.365692,153.407120 
	C233.365692,145.034500 233.365692,136.794586 233.365707,128.064240 
z"/>
<path fill="#131313" opacity="1.000000" stroke="none" 
	d="
M140.072144,184.064117 
	C140.138962,182.311661 140.205765,181.019913 140.286804,179.453186 
	C149.897797,179.453186 159.279327,179.453186 169.021179,179.453186 
	C169.021179,183.010696 169.021179,186.543823 169.021179,190.354034 
	C159.483154,190.354034 150.109375,190.354034 140.072128,190.354034 
	C140.072128,188.349701 140.072128,186.437271 140.072144,184.064117 
z"/>
<path fill="#141414" opacity="1.000000" stroke="none" 
	d="
M130.297363,185.834198 
	C130.297348,187.557388 130.297348,188.851379 130.297348,190.345184 
	C120.782082,190.345184 111.727783,190.345184 102.403198,190.345184 
	C102.403198,186.660934 102.403198,183.256256 102.403198,179.502045 
	C111.649422,179.502045 120.704445,179.502045 130.297363,179.502045 
	C130.297363,181.487061 130.297363,183.446030 130.297363,185.834198 
z"/>
<path fill="#141414" opacity="1.000000" stroke="none" 
	d="
M197.918167,179.154816 
	C201.193985,179.154831 203.982986,179.154831 207.007858,179.154831 
	C207.007858,183.007172 207.007858,186.446152 207.007858,190.257553 
	C197.836426,190.257553 188.682190,190.257553 179.371735,190.257553 
	C179.371735,186.574890 179.371735,183.170090 179.371735,179.154816 
	C185.571579,179.154816 191.501465,179.154816 197.918167,179.154816 
z"/>
<path fill="#101010" opacity="1.000000" stroke="none" 
	d="
M201.738098,92.846313 
	C194.151367,92.846313 187.035477,92.846313 179.514709,92.846313 
	C179.514709,89.121834 179.514709,85.762726 179.514709,82.150467 
	C188.573196,82.150467 197.501648,82.150467 206.835266,82.150467 
	C206.835266,85.385010 206.835266,88.765083 206.835266,92.587631 
	C205.367371,92.669708 203.788162,92.758011 201.738098,92.846313 
z"/>
<path fill="#101010" opacity="1.000000" stroke="none" 
	d="
M169.354492,84.392883 
	C169.363144,87.292030 169.363144,89.756157 169.363144,92.530045 
	C159.500122,92.530045 150.107727,92.530045 140.396362,92.530045 
	C140.396362,89.186874 140.396362,85.942886 140.396362,82.053459 
	C149.602753,82.053459 158.843796,82.028030 168.083344,82.134239 
	C168.511108,82.139168 168.925323,83.323067 169.354492,84.392883 
z"/>
<path fill="#101010" opacity="1.000000" stroke="none" 
	d="
M128.495956,92.823792 
	C120.200317,94.300789 115.789345,88.382179 109.400574,84.571861 
	C116.290520,79.576393 123.248810,83.279602 130.946777,81.209343 
	C130.138031,85.850967 129.532120,89.328468 128.495956,92.823792 
z"/>
<path fill="#141414" opacity="1.000000" stroke="none" 
	d="
M67.983200,146.146103 
	C70.675316,144.851715 73.002007,143.651230 75.707016,142.255554 
	C75.707016,145.980957 75.707016,149.502899 75.707016,153.399536 
	C72.328613,153.399536 68.800629,153.399536 64.980553,153.399536 
	C64.685799,150.523071 63.274059,147.428574 67.983200,146.146103 
z"/>
<path fill="#F7F7F7" opacity="1.000000" stroke="none" 
	d="
M60.206680,59.788040 
	C54.482773,60.640957 48.495037,57.781376 47.070538,53.876583 
	C44.880066,47.872131 46.402046,43.332382 51.950157,39.321655 
	C55.137547,37.017494 60.967735,37.437263 64.561523,40.229652 
	C68.687126,43.435265 70.558380,49.165432 67.891403,53.496529 
	C66.312157,56.061176 63.066441,57.599663 60.206680,59.788040 
z"/>
<path fill="#F7F7F7" opacity="1.000000" stroke="none" 
	d="
M46.569050,117.701584 
	C48.684692,111.323761 54.619370,107.835182 60.146114,109.430641 
	C66.365417,111.226036 69.881187,116.380104 68.803520,121.820854 
	C67.399078,128.911346 61.661659,131.014862 54.766426,130.677704 
	C49.519993,130.421158 45.732101,124.214500 46.569050,117.701584 
z"/>
</svg>