<svg width="21" height="20.5" xmlns="http://www.w3.org/2000/svg" alt="search" class="brand"><path d="M7.886 13.54c3.266 0 5.914-2.54 5.914-5.672 0-3.134-2.648-5.673-5.914-5.673-3.266 0-5.914 2.54-5.914 5.673.007 3.13 2.65 5.665 5.913 5.672h.001zM0 7.867v-.011C0 3.679 3.53.29 7.886.29c4.355 0 7.885 3.388 7.885 7.565a7.34 7.34 0 01-1.668 4.654l6.584 6.287a.923.923 0 01.313.692c0 .522-.441.945-.986.945-.283 0-.54-.115-.72-.3l-6.572-6.305a8.047 8.047 0 01-4.836 1.59C3.535 15.42.007 12.04 0 7.868v-.001z" fill="#fff" fill-rule="evenodd"></path></svg>