<svg width="27" height="32" xmlns="http://www.w3.org/2000/svg" alt="cart" class="brand"><path d="M23.097 18.988l-.165.783H7.77L5.75 8.862H25.25l-2.154 10.126zm-14.89 7.955c.934 0 1.692.713 1.692 1.591s-.758 1.59-1.693 1.59c-.933 0-1.691-.712-1.691-1.59 0-.878.758-1.591 1.691-1.591zm13.014 0c.934 0 1.691.713 1.691 1.591s-.757 1.59-1.691 1.59-1.692-.712-1.692-1.59c0-.872.746-1.58 1.672-1.591h.02zm5.802-19.454H5.5L4.241.689a.714.714 0 00-.713-.564H.471v1.363h2.447l4.476 24.21c-1.338.358-2.303 1.496-2.303 2.847 0 1.631 1.407 2.955 3.142 2.955 1.736 0 3.142-1.324 3.142-2.954 0-.595-.187-1.15-.508-1.613l7.695.01c-.308.449-.49.996-.49 1.583 0 1.627 1.401 2.946 3.132 2.946 1.73 0 3.133-1.32 3.133-2.946 0-1.627-1.403-2.945-3.133-2.945H8.844l-.822-4.446H24.15l.397-1.918.356-1.727.234-1 1.886-9.001z" fill="#000" fill-rule="evenodd"></path></svg>