<?xml version="1.0" standalone="no"?>
<!DOCTYPE svg PUBLIC "-//W3C//DTD SVG 20010904//EN"
 "http://www.w3.org/TR/2001/REC-SVG-20010904/DTD/svg10.dtd">
<svg version="1.0" xmlns="http://www.w3.org/2000/svg"
 width="165.000000pt" height="188.000000pt" viewBox="0 0 165.000000 188.000000"
 preserveAspectRatio="xMidYMid meet">

<g transform="translate(0.000000,188.000000) scale(0.100000,-0.100000)"
fill="#000000" stroke="none">
<path d="M1385 1786 c-58 -15 -834 -199 -1042 -247 l-143 -33 0 -43 c0 -24 4
-43 9 -43 9 0 243 55 921 215 151 36 290 68 308 71 30 6 32 9 32 50 0 50 -2
51 -85 30z"/>
<path d="M1295 1586 c-5 -2 -54 -14 -107 -26 l-98 -21 0 -241 0 -240 33 7 c48
11 57 23 57 76 0 48 0 48 40 59 22 5 58 15 81 21 50 13 121 76 149 133 50 105
-2 221 -106 231 -21 3 -43 3 -49 1z m60 -111 c61 -60 4 -158 -105 -180 -19 -3
-43 -9 -52 -11 -16 -5 -18 4 -18 90 l0 95 43 11 c23 6 47 13 52 15 28 10 58 3
80 -20z"/>
<path d="M805 1471 c-92 -23 -191 -113 -220 -202 -26 -76 -17 -166 19 -214 40
-51 85 -68 168 -63 78 6 135 35 191 97 52 58 69 97 75 172 6 82 -9 129 -53
168 -51 44 -111 58 -180 42z m72 -91 c8 0 28 -13 44 -29 24 -25 29 -37 29 -81
0 -102 -68 -180 -165 -188 -43 -4 -59 0 -84 17 -76 55 -56 184 41 252 32 23
84 39 106 33 8 -2 20 -4 29 -4z"/>
<path d="M363 1368 l-163 -41 0 -43 c0 -24 1 -44 3 -44 1 0 27 7 57 15 30 8
61 15 68 15 9 0 12 -45 12 -190 0 -206 -3 -196 59 -184 l31 6 2 197 3 196 65
15 65 16 3 42 c4 53 9 53 -205 0z"/>
<path d="M1223 1050 c-148 -35 -267 -223 -223 -354 27 -83 90 -126 182 -126
103 1 206 74 259 185 45 94 33 203 -29 258 -44 39 -119 54 -189 37z m97 -95
c67 -35 78 -131 23 -209 -78 -111 -222 -114 -254 -5 -16 53 1 107 49 161 59
65 123 84 182 53z"/>
<path d="M682 921 c-133 -46 -235 -218 -203 -339 23 -83 88 -132 177 -132 69
0 116 17 177 66 159 124 152 368 -11 414 -51 14 -79 12 -140 -9z m113 -85 c83
-35 87 -153 6 -239 -37 -41 -73 -57 -124 -57 -119 0 -153 141 -59 242 33 34
94 66 130 68 7 0 28 -6 47 -14z"/>
<path d="M333 751 c-51 -62 -93 -117 -93 -121 0 -5 12 -18 27 -29 l26 -21 24
22 23 21 0 -127 0 -128 38 7 c20 3 40 10 45 14 4 4 6 113 5 242 l-3 234 -92
-114z"/>
<path d="M1265 503 c-184 -43 -525 -124 -865 -205 -91 -21 -173 -41 -182 -44
-13 -4 -18 -16 -18 -45 0 -47 3 -47 116 -20 160 40 1140 271 1147 271 4 0 7
20 7 45 0 25 -3 45 -7 44 -5 0 -93 -21 -198 -46z"/>
</g>
</svg>
